<svg xmlns="http://www.w3.org/2000/svg" xmlns:xlink="http://www.w3.org/1999/xlink" width="1440" zoomAndPan="magnify" viewBox="0 0 1080 323.999988" height="432" preserveAspectRatio="xMidYMid meet" version="1.0"><defs><g/><clipPath id="522064c0ea"><rect x="0" width="962" y="0" height="243"/></clipPath></defs><g transform="matrix(1, 0, 0, 1, 59, 51)"><g clip-path="url(#522064c0ea)"><g fill="#d8d8d8" fill-opacity="1"><g transform="translate(2.616777, 189.589153)"><g><path d="M 70.15625 -167.5625 C 80.445312 -167.5625 89.164062 -166.425781 96.3125 -164.15625 C 103.457031 -161.882812 109.367188 -158.976562 114.046875 -155.4375 C 118.722656 -151.894531 122.394531 -148.117188 125.0625 -144.109375 C 127.738281 -140.097656 129.710938 -136.289062 130.984375 -132.6875 C 132.253906 -129.082031 133.085938 -126.210938 133.484375 -124.078125 C 133.753906 -122.597656 133.554688 -121.359375 132.890625 -120.359375 C 132.222656 -119.359375 131.351562 -118.789062 130.28125 -118.65625 L 81.171875 -111.84375 C 78.898438 -111.84375 77.363281 -112.976562 76.5625 -115.25 C 75.632812 -117.925781 74.03125 -119.894531 71.75 -121.15625 C 69.476562 -122.425781 67.539062 -123.0625 65.9375 -123.0625 C 63.800781 -123.0625 61.429688 -122.160156 58.828125 -120.359375 C 56.222656 -118.554688 54.921875 -115.71875 54.921875 -111.84375 C 54.921875 -108.632812 55.820312 -106.257812 57.625 -104.71875 C 59.425781 -103.1875 61.53125 -102.1875 63.9375 -101.71875 C 66.34375 -101.25 68.414062 -101.015625 70.15625 -101.015625 C 73.5 -101.015625 77.84375 -100.976562 83.1875 -100.90625 C 88.53125 -100.84375 94.171875 -100.175781 100.109375 -98.90625 C 106.054688 -97.644531 111.671875 -95.3125 116.953125 -91.90625 C 122.234375 -88.5 126.539062 -83.488281 129.875 -76.875 C 133.21875 -70.257812 134.890625 -61.535156 134.890625 -50.703125 C 134.890625 -39.753906 133.117188 -30.535156 129.578125 -23.046875 C 126.035156 -15.566406 121.425781 -9.617188 115.75 -5.203125 C 110.070312 -0.796875 103.890625 2.375 97.203125 4.3125 C 90.523438 6.25 84.046875 7.21875 77.765625 7.21875 C 65.203125 7.21875 54.710938 5.976562 46.296875 3.5 C 37.878906 1.03125 30.960938 -2.335938 25.546875 -6.609375 C 20.140625 -10.890625 15.832031 -15.703125 12.625 -21.046875 C 9.414062 -26.390625 6.8125 -31.9375 4.8125 -37.6875 C 3.070312 -40.757812 3.738281 -42.628906 6.8125 -43.296875 L 60.53125 -49.703125 C 62 -49.972656 63.035156 -49.90625 63.640625 -49.5 C 64.242188 -49.101562 64.675781 -48.503906 64.9375 -47.703125 C 66.007812 -43.691406 67.644531 -41.1875 69.84375 -40.1875 C 72.050781 -39.1875 73.957031 -38.6875 75.5625 -38.6875 C 78.375 -38.6875 80.914062 -39.71875 83.1875 -41.78125 C 85.457031 -43.851562 86.59375 -46.492188 86.59375 -49.703125 C 86.59375 -53.046875 85.421875 -55.648438 83.078125 -57.515625 C 80.742188 -59.390625 77.90625 -60.328125 74.5625 -60.328125 L 62.53125 -60.328125 C 51.3125 -60.328125 41.222656 -62.460938 32.265625 -66.734375 C 23.316406 -71.015625 16.269531 -77.265625 11.125 -85.484375 C 5.976562 -93.703125 3.40625 -103.625 3.40625 -115.25 C 3.40625 -124.601562 4.941406 -132.382812 8.015625 -138.59375 C 11.085938 -144.8125 15.09375 -149.820312 20.03125 -153.625 C 24.976562 -157.4375 30.257812 -160.34375 35.875 -162.34375 C 41.488281 -164.351562 46.832031 -165.691406 51.90625 -166.359375 C 56.988281 -167.023438 61.195312 -167.390625 64.53125 -167.453125 C 67.875 -167.523438 69.75 -167.5625 70.15625 -167.5625 Z M 70.15625 -167.5625 "/></g></g></g><g fill="#d8d8d8" fill-opacity="1"><g transform="translate(140.914432, 189.589153)"><g><path d="M 152.9375 -16.84375 C 153.601562 -13.894531 153.332031 -10.984375 152.125 -8.109375 C 150.925781 -5.242188 148.988281 -3.078125 146.3125 -1.609375 C 144.582031 -0.535156 142.582031 0 140.3125 0 L 113.046875 0 C 109.304688 0 106.5 -1.132812 104.625 -3.40625 C 102.757812 -5.675781 101.09375 -8.679688 99.625 -12.421875 L 93.609375 -28.0625 L 62.9375 -28.0625 L 57.125 -12.421875 C 55.65625 -8.679688 53.984375 -5.707031 52.109375 -3.5 C 50.242188 -1.300781 47.441406 -0.203125 43.703125 -0.203125 L 16.4375 -0.203125 C 14.300781 -0.203125 12.5625 -0.535156 11.21875 -1.203125 C 8.28125 -2.535156 6.109375 -4.707031 4.703125 -7.71875 C 3.304688 -10.726562 3.007812 -13.832031 3.8125 -17.03125 L 39.890625 -149.53125 C 40.285156 -151.394531 40.984375 -152.925781 41.984375 -154.125 C 42.992188 -155.332031 43.960938 -156.269531 44.890625 -156.9375 C 47.035156 -158.675781 49.644531 -159.546875 52.71875 -159.546875 L 105.234375 -159.546875 C 106.703125 -159.546875 108.300781 -159.273438 110.03125 -158.734375 C 111.769531 -158.203125 113.375 -157.203125 114.84375 -155.734375 C 116.320312 -154.128906 117.289062 -152.492188 117.75 -150.828125 C 118.21875 -149.160156 118.585938 -147.722656 118.859375 -146.515625 Z M 87.796875 -74.359375 C 88.722656 -74.359375 89.453125 -74.757812 89.984375 -75.5625 C 90.523438 -76.363281 90.660156 -77.234375 90.390625 -78.171875 L 85.1875 -91.796875 L 80.984375 -102.21875 C 80.578125 -103.5625 79.703125 -104.234375 78.359375 -104.234375 C 77.023438 -104.234375 76.160156 -103.5625 75.765625 -102.21875 L 71.75 -91.796875 L 66.546875 -78.171875 C 66.015625 -77.234375 66.082031 -76.363281 66.75 -75.5625 C 67.414062 -74.757812 68.21875 -74.359375 69.15625 -74.359375 Z M 87.796875 -74.359375 "/></g></g></g><g fill="#d8d8d8" fill-opacity="1"><g transform="translate(297.65175, 189.589153)"><g><path d="M 103.421875 -159.953125 C 106.359375 -159.953125 108.828125 -158.945312 110.828125 -156.9375 C 112.835938 -154.9375 113.84375 -152.398438 113.84375 -149.328125 L 113.84375 -126.875 C 113.84375 -124.070312 112.835938 -121.632812 110.828125 -119.5625 C 108.828125 -117.488281 106.359375 -116.453125 103.421875 -116.453125 L 62.53125 -116.453125 C 61.601562 -116.453125 61.140625 -115.984375 61.140625 -115.046875 L 61.140625 -96.609375 C 61.140625 -95.671875 61.601562 -95.203125 62.53125 -95.203125 L 92 -95.203125 C 94.675781 -95.203125 96.945312 -94.265625 98.8125 -92.390625 C 100.6875 -90.523438 101.625 -88.257812 101.625 -85.59375 L 101.625 -63.53125 C 101.625 -61 100.6875 -58.796875 98.8125 -56.921875 C 96.945312 -55.054688 94.675781 -54.125 92 -54.125 L 62.53125 -54.125 C 61.601562 -53.851562 61.140625 -53.316406 61.140625 -52.515625 L 61.140625 -14.828125 C 61.140625 -10.691406 59.703125 -7.1875 56.828125 -4.3125 C 53.953125 -1.4375 50.441406 0 46.296875 0 L 21.25 0 C 17.238281 0 13.796875 -1.4375 10.921875 -4.3125 C 8.046875 -7.1875 6.609375 -10.691406 6.609375 -14.828125 L 6.609375 -145.109375 C 6.609375 -149.253906 8.046875 -152.765625 10.921875 -155.640625 C 13.796875 -158.515625 17.238281 -159.953125 21.25 -159.953125 Z M 103.421875 -159.953125 "/></g></g></g><g fill="#d8d8d8" fill-opacity="1"><g transform="translate(418.111009, 189.589153)"><g><path d="M 62.53125 -116.859375 C 62.132812 -116.859375 61.800781 -116.65625 61.53125 -116.25 C 61.269531 -115.851562 61.140625 -115.519531 61.140625 -115.25 L 61.140625 -102.015625 C 61.140625 -101.210938 61.601562 -100.8125 62.53125 -100.8125 L 92 -100.8125 C 94.675781 -100.8125 96.945312 -99.875 98.8125 -98 C 100.6875 -96.132812 101.625 -93.867188 101.625 -91.203125 L 101.625 -69.34375 C 101.625 -66.675781 100.6875 -64.40625 98.8125 -62.53125 C 96.945312 -60.664062 94.675781 -59.734375 92 -59.734375 L 62.53125 -59.734375 C 61.601562 -59.734375 61.140625 -59.265625 61.140625 -58.328125 L 61.140625 -45.5 C 61.140625 -44.5625 61.601562 -44.09375 62.53125 -44.09375 L 103.21875 -44.09375 C 106.164062 -44.09375 108.671875 -43.023438 110.734375 -40.890625 C 112.804688 -38.753906 113.84375 -36.210938 113.84375 -33.265625 L 113.84375 -10.828125 C 113.84375 -7.878906 112.804688 -5.40625 110.734375 -3.40625 C 108.671875 -1.40625 106.164062 -0.40625 103.21875 -0.40625 L 21.25 -0.40625 C 17.101562 -0.40625 13.625 -1.972656 10.8125 -5.109375 C 8.007812 -8.253906 6.609375 -12.765625 6.609375 -18.640625 L 6.609375 -149.125 C 6.609375 -151.394531 8.007812 -153.800781 10.8125 -156.34375 C 13.625 -158.882812 17.101562 -160.15625 21.25 -160.15625 L 103.21875 -160.15625 C 106.164062 -160.15625 108.671875 -159.148438 110.734375 -157.140625 C 112.804688 -155.140625 113.84375 -152.671875 113.84375 -149.734375 L 113.84375 -127.28125 C 113.84375 -124.46875 112.804688 -122.023438 110.734375 -119.953125 C 108.671875 -117.890625 106.164062 -116.859375 103.21875 -116.859375 Z M 62.53125 -116.859375 "/></g></g></g><g fill="#d8d8d8" fill-opacity="1"><g transform="translate(538.570268, 189.589153)"><g><path d="M 131.28125 -17.03125 C 132.351562 -12.351562 131.519531 -8.441406 128.78125 -5.296875 C 126.039062 -2.160156 122.734375 -0.59375 118.859375 -0.59375 L 86.390625 -0.59375 C 83.046875 -0.59375 79.535156 -1.992188 75.859375 -4.796875 C 72.191406 -7.609375 69.820312 -11.285156 68.75 -15.828125 L 63.53125 -40.28125 L 61.9375 -48.5 C 61.9375 -49.175781 61.535156 -49.515625 60.734375 -49.515625 C 60.066406 -49.515625 59.734375 -49.113281 59.734375 -48.3125 L 59.734375 -14.828125 C 59.734375 -13.222656 59.628906 -11.753906 59.421875 -10.421875 C 59.222656 -9.085938 58.191406 -7.414062 56.328125 -5.40625 C 54.984375 -3.800781 53.375 -2.597656 51.5 -1.796875 C 49.632812 -0.992188 47.703125 -0.59375 45.703125 -0.59375 L 20.046875 -0.59375 C 16.171875 -0.59375 12.863281 -1.960938 10.125 -4.703125 C 7.382812 -7.441406 6.015625 -10.6875 6.015625 -14.4375 L 6.015625 -142.109375 C 6.015625 -147.859375 7.382812 -152.269531 10.125 -155.34375 C 12.863281 -158.414062 16.171875 -159.953125 20.046875 -159.953125 L 92.40625 -160.15625 C 99.75 -160.15625 106.394531 -158.113281 112.34375 -154.03125 C 118.289062 -149.957031 123.035156 -144.210938 126.578125 -136.796875 C 130.117188 -129.378906 131.890625 -120.523438 131.890625 -110.234375 C 131.890625 -101.554688 130.585938 -93.910156 127.984375 -87.296875 C 125.378906 -80.679688 121.867188 -74.765625 117.453125 -69.546875 C 117.992188 -68.742188 118.460938 -67.476562 118.859375 -65.75 Z M 77.96875 -105.03125 C 77.96875 -108.375 76.796875 -111.210938 74.453125 -113.546875 C 72.117188 -115.890625 69.347656 -117.0625 66.140625 -117.0625 L 62.34375 -117.0625 C 60.601562 -117.0625 59.734375 -116.191406 59.734375 -114.453125 L 59.734375 -93 C 59.734375 -91.257812 60.601562 -90.390625 62.34375 -90.390625 L 66.140625 -90.390625 C 69.347656 -90.390625 72.117188 -91.554688 74.453125 -93.890625 C 76.796875 -96.234375 77.96875 -99.007812 77.96875 -102.21875 Z M 77.96875 -105.03125 "/></g></g></g><g fill="#d8d8d8" fill-opacity="1"><g transform="translate(677.068385, 189.589153)"><g><path d="M 122.0625 -159.953125 C 125.269531 -159.953125 128.039062 -158.75 130.375 -156.34375 C 132.71875 -153.9375 133.890625 -151.128906 133.890625 -147.921875 L 133.890625 -54.71875 C 133.492188 -46.570312 131.457031 -38.957031 127.78125 -31.875 C 124.101562 -24.789062 119.222656 -18.578125 113.140625 -13.234375 C 107.066406 -7.890625 100.1875 -3.710938 92.5 -0.703125 C 84.820312 2.304688 76.835938 3.8125 68.546875 3.8125 C 60.128906 3.8125 52.007812 2.207031 44.1875 -1 C 36.375 -4.207031 29.425781 -8.582031 23.34375 -14.125 C 17.269531 -19.675781 12.425781 -26.160156 8.8125 -33.578125 C 5.207031 -40.992188 3.40625 -48.910156 3.40625 -57.328125 L 3.40625 -152.53125 C 3.40625 -154.539062 4.101562 -156.242188 5.5 -157.640625 C 6.90625 -159.046875 8.546875 -159.75 10.421875 -159.75 L 54.3125 -159.75 C 56.1875 -159.75 57.820312 -159.046875 59.21875 -157.640625 C 60.625 -156.242188 61.328125 -154.539062 61.328125 -152.53125 L 61.328125 -56.921875 C 61.328125 -54.515625 62.195312 -52.476562 63.9375 -50.8125 C 65.675781 -49.144531 67.679688 -48.3125 69.953125 -48.3125 C 72.359375 -48.3125 74.425781 -49.144531 76.15625 -50.8125 C 77.894531 -52.476562 78.765625 -54.515625 78.765625 -56.921875 L 78.765625 -147.921875 C 78.765625 -151.128906 79.898438 -153.9375 82.171875 -156.34375 C 84.453125 -158.75 87.191406 -159.953125 90.390625 -159.953125 Z M 122.0625 -159.953125 "/></g></g></g><g fill="#d8d8d8" fill-opacity="1"><g transform="translate(814.363849, 189.589153)"><g><path d="M 123.671875 -160.15625 C 127.816406 -160.15625 131.289062 -158.75 134.09375 -155.9375 C 136.894531 -153.132812 138.296875 -149.726562 138.296875 -145.71875 L 138.296875 -11.828125 C 138.296875 -7.816406 136.894531 -4.40625 134.09375 -1.59375 C 131.289062 1.207031 127.816406 2.609375 123.671875 2.609375 L 98.421875 2.609375 C 95.210938 2.609375 92.40625 1.675781 90 -0.1875 C 87.59375 -2.0625 85.785156 -4.40625 84.578125 -7.21875 L 61.140625 -56.921875 L 61.140625 -11.828125 C 61.140625 -7.816406 59.734375 -4.40625 56.921875 -1.59375 C 54.117188 1.207031 50.644531 2.609375 46.5 2.609375 L 21.25 2.609375 C 17.238281 2.609375 13.796875 1.207031 10.921875 -1.59375 C 8.046875 -4.40625 6.609375 -7.816406 6.609375 -11.828125 L 6.609375 -145.71875 C 6.609375 -149.726562 8.046875 -153.132812 10.921875 -155.9375 C 13.796875 -158.75 17.238281 -160.15625 21.25 -160.15625 L 46.5 -160.15625 C 49.570312 -160.15625 52.378906 -159.285156 54.921875 -157.546875 C 57.460938 -155.804688 59.265625 -153.535156 60.328125 -150.734375 L 83.78125 -98.609375 L 83.78125 -145.71875 C 83.78125 -149.726562 85.25 -153.132812 88.1875 -155.9375 C 91.132812 -158.75 94.546875 -160.15625 98.421875 -160.15625 Z M 123.671875 -160.15625 "/></g></g></g></g></g></svg>