<svg xmlns="http://www.w3.org/2000/svg" xmlns:xlink="http://www.w3.org/1999/xlink" width="2380" zoomAndPan="magnify" viewBox="0 0 1784.88 323.999988" height="432" preserveAspectRatio="xMidYMid meet" version="1.0"><defs><g/><clipPath id="5f2bce6983"><rect x="0" width="1700" y="0" height="222"/></clipPath></defs><g transform="matrix(1, 0, 0, 1, 43, 59)"><g clip-path="url(#5f2bce6983)"><g fill="#d8d8d8" fill-opacity="1"><g transform="translate(0.669155, 80.771818)"><g><path d="M 42.359375 -23.0625 C 43.953125 -23.0625 45.300781 -22.460938 46.40625 -21.265625 C 47.519531 -20.066406 48.078125 -18.671875 48.078125 -17.078125 L 48.078125 -5.640625 C 48.078125 -4.097656 47.519531 -2.769531 46.40625 -1.65625 C 45.300781 -0.550781 43.953125 0 42.359375 0 L 8.453125 0 C 6.628906 0 5.234375 -0.550781 4.265625 -1.65625 C 3.296875 -2.769531 2.8125 -4.097656 2.8125 -5.640625 L 2.8125 -61.390625 C 2.8125 -63.210938 3.394531 -64.820312 4.5625 -66.21875 C 5.726562 -67.613281 7.222656 -68.3125 9.046875 -68.3125 L 18.953125 -68.3125 C 20.722656 -68.3125 22.289062 -67.613281 23.65625 -66.21875 C 25.019531 -64.820312 25.703125 -63.210938 25.703125 -61.390625 L 25.703125 -23.0625 Z M 42.359375 -23.0625 "/></g></g></g><g fill="#d8d8d8" fill-opacity="1"><g transform="translate(51.560095, 80.771818)"><g><path d="M 26.640625 -49.78125 C 26.472656 -49.78125 26.332031 -49.691406 26.21875 -49.515625 C 26.101562 -49.347656 26.046875 -49.207031 26.046875 -49.09375 L 26.046875 -43.46875 C 26.046875 -43.125 26.242188 -42.953125 26.640625 -42.953125 L 39.1875 -42.953125 C 40.332031 -42.953125 41.300781 -42.550781 42.09375 -41.75 C 42.894531 -40.957031 43.296875 -39.992188 43.296875 -38.859375 L 43.296875 -29.546875 C 43.296875 -28.410156 42.894531 -27.441406 42.09375 -26.640625 C 41.300781 -25.847656 40.332031 -25.453125 39.1875 -25.453125 L 26.640625 -25.453125 C 26.242188 -25.453125 26.046875 -25.25 26.046875 -24.84375 L 26.046875 -19.390625 C 26.046875 -18.984375 26.242188 -18.78125 26.640625 -18.78125 L 43.96875 -18.78125 C 45.226562 -18.78125 46.296875 -18.320312 47.171875 -17.40625 C 48.054688 -16.5 48.5 -15.421875 48.5 -14.171875 L 48.5 -4.609375 C 48.5 -3.359375 48.054688 -2.304688 47.171875 -1.453125 C 46.296875 -0.597656 45.226562 -0.171875 43.96875 -0.171875 L 9.046875 -0.171875 C 7.285156 -0.171875 5.804688 -0.835938 4.609375 -2.171875 C 3.410156 -3.515625 2.8125 -5.4375 2.8125 -7.9375 L 2.8125 -63.53125 C 2.8125 -64.5 3.410156 -65.523438 4.609375 -66.609375 C 5.804688 -67.691406 7.285156 -68.234375 9.046875 -68.234375 L 43.96875 -68.234375 C 45.226562 -68.234375 46.296875 -67.804688 47.171875 -66.953125 C 48.054688 -66.097656 48.5 -65.039062 48.5 -63.78125 L 48.5 -54.21875 C 48.5 -53.03125 48.054688 -51.992188 47.171875 -51.109375 C 46.296875 -50.222656 45.226562 -49.78125 43.96875 -49.78125 Z M 26.640625 -49.78125 "/></g></g></g><g fill="#d8d8d8" fill-opacity="1"><g transform="translate(102.87797, 80.771818)"><g><path d="M 57.21875 -68.3125 C 58.863281 -68.3125 60.269531 -67.726562 61.4375 -66.5625 C 62.601562 -65.394531 63.1875 -63.984375 63.1875 -62.328125 L 63.1875 -50.640625 C 63.1875 -49.046875 62.601562 -47.648438 61.4375 -46.453125 C 60.269531 -45.253906 58.863281 -44.65625 57.21875 -44.65625 L 45.515625 -44.65625 C 45.054688 -44.65625 44.828125 -44.457031 44.828125 -44.0625 L 44.828125 -5.8125 C 44.828125 -4.21875 44.242188 -2.820312 43.078125 -1.625 C 41.910156 -0.425781 40.503906 0.171875 38.859375 0.171875 L 27.234375 0.171875 C 25.523438 0.171875 24.085938 -0.425781 22.921875 -1.625 C 21.753906 -2.820312 21.171875 -4.21875 21.171875 -5.8125 L 21.171875 -44.0625 C 21.171875 -44.457031 20.972656 -44.65625 20.578125 -44.65625 L 8.796875 -44.65625 C 7.203125 -44.65625 5.804688 -45.253906 4.609375 -46.453125 C 3.410156 -47.648438 2.8125 -49.046875 2.8125 -50.640625 L 2.8125 -62.328125 C 2.8125 -63.984375 3.410156 -65.394531 4.609375 -66.5625 C 5.804688 -67.726562 7.203125 -68.3125 8.796875 -68.3125 Z M 57.21875 -68.3125 "/></g></g></g><g fill="#d8d8d8" fill-opacity="1"><g transform="translate(168.882485, 80.771818)"><g/></g></g><g fill="#d8d8d8" fill-opacity="1"><g transform="translate(197.914232, 80.771818)"><g><path d="M 29.890625 -71.390625 C 34.273438 -71.390625 37.988281 -70.90625 41.03125 -69.9375 C 44.070312 -68.96875 46.585938 -67.726562 48.578125 -66.21875 C 50.578125 -64.707031 52.144531 -63.097656 53.28125 -61.390625 C 54.414062 -59.679688 55.253906 -58.054688 55.796875 -56.515625 C 56.335938 -54.984375 56.695312 -53.765625 56.875 -52.859375 C 56.988281 -52.234375 56.898438 -51.707031 56.609375 -51.28125 C 56.328125 -50.851562 55.957031 -50.609375 55.5 -50.546875 L 34.578125 -47.640625 C 33.609375 -47.640625 32.957031 -48.125 32.625 -49.09375 C 32.21875 -50.238281 31.53125 -51.082031 30.5625 -51.625 C 29.601562 -52.164062 28.78125 -52.4375 28.09375 -52.4375 C 27.1875 -52.4375 26.175781 -52.050781 25.0625 -51.28125 C 23.945312 -50.507812 23.390625 -49.296875 23.390625 -47.640625 C 23.390625 -46.273438 23.773438 -45.265625 24.546875 -44.609375 C 25.316406 -43.960938 26.210938 -43.535156 27.234375 -43.328125 C 28.265625 -43.128906 29.148438 -43.03125 29.890625 -43.03125 C 31.304688 -43.03125 33.15625 -43.015625 35.4375 -42.984375 C 37.71875 -42.960938 40.125 -42.679688 42.65625 -42.140625 C 45.1875 -41.597656 47.578125 -40.597656 49.828125 -39.140625 C 52.078125 -37.691406 53.910156 -35.554688 55.328125 -32.734375 C 56.753906 -29.921875 57.46875 -26.210938 57.46875 -21.609375 C 57.46875 -16.941406 56.710938 -13.007812 55.203125 -9.8125 C 53.691406 -6.625 51.726562 -4.09375 49.3125 -2.21875 C 46.894531 -0.34375 44.257812 1.003906 41.40625 1.828125 C 38.5625 2.660156 35.800781 3.078125 33.125 3.078125 C 27.78125 3.078125 23.3125 2.550781 19.71875 1.5 C 16.132812 0.445312 13.1875 -0.988281 10.875 -2.8125 C 8.570312 -4.632812 6.738281 -6.679688 5.375 -8.953125 C 4.007812 -11.234375 2.898438 -13.597656 2.046875 -16.046875 C 1.304688 -17.359375 1.59375 -18.15625 2.90625 -18.4375 L 25.78125 -21.171875 C 26.414062 -21.285156 26.859375 -21.253906 27.109375 -21.078125 C 27.367188 -20.910156 27.554688 -20.660156 27.671875 -20.328125 C 28.117188 -18.617188 28.8125 -17.550781 29.75 -17.125 C 30.695312 -16.695312 31.507812 -16.484375 32.1875 -16.484375 C 33.382812 -16.484375 34.46875 -16.921875 35.4375 -17.796875 C 36.40625 -18.679688 36.890625 -19.804688 36.890625 -21.171875 C 36.890625 -22.597656 36.390625 -23.707031 35.390625 -24.5 C 34.398438 -25.300781 33.191406 -25.703125 31.765625 -25.703125 L 26.640625 -25.703125 C 21.859375 -25.703125 17.5625 -26.613281 13.75 -28.4375 C 9.9375 -30.257812 6.929688 -32.921875 4.734375 -36.421875 C 2.546875 -39.921875 1.453125 -44.144531 1.453125 -49.09375 C 1.453125 -53.082031 2.101562 -56.398438 3.40625 -59.046875 C 4.71875 -61.691406 6.425781 -63.828125 8.53125 -65.453125 C 10.644531 -67.078125 12.894531 -68.316406 15.28125 -69.171875 C 17.675781 -70.023438 19.953125 -70.59375 22.109375 -70.875 C 24.273438 -71.15625 26.066406 -71.3125 27.484375 -71.34375 C 28.910156 -71.375 29.710938 -71.390625 29.890625 -71.390625 Z M 29.890625 -71.390625 "/></g></g></g><g fill="#d8d8d8" fill-opacity="1"><g transform="translate(256.831593, 80.771818)"><g><path d="M 29.28125 -69.34375 C 32.875 -69.34375 36.332031 -68.6875 39.65625 -67.375 C 42.988281 -66.0625 45.960938 -64.253906 48.578125 -61.953125 C 51.203125 -59.648438 53.28125 -56.957031 54.8125 -53.875 C 56.351562 -50.800781 57.125 -47.5 57.125 -43.96875 L 57.125 -24.5 C 57.125 -20.863281 56.351562 -17.460938 54.8125 -14.296875 C 53.28125 -11.140625 51.203125 -8.378906 48.578125 -6.015625 C 45.960938 -3.648438 42.988281 -1.8125 39.65625 -0.5 C 36.332031 0.800781 32.875 1.453125 29.28125 1.453125 C 25.8125 1.453125 22.410156 0.800781 19.078125 -0.5 C 15.753906 -1.8125 12.765625 -3.648438 10.109375 -6.015625 C 7.460938 -8.378906 5.359375 -11.140625 3.796875 -14.296875 C 2.234375 -17.460938 1.453125 -20.863281 1.453125 -24.5 L 1.453125 -43.96875 C 1.453125 -47.5 2.234375 -50.800781 3.796875 -53.875 C 5.359375 -56.957031 7.460938 -59.648438 10.109375 -61.953125 C 12.765625 -64.253906 15.753906 -66.0625 19.078125 -67.375 C 22.410156 -68.6875 25.8125 -69.34375 29.28125 -69.34375 Z M 35.015625 -25.359375 L 35.015625 -42.4375 C 35.015625 -43.976562 34.441406 -45.300781 33.296875 -46.40625 C 32.160156 -47.519531 30.820312 -48.078125 29.28125 -48.078125 C 27.6875 -48.078125 26.347656 -47.519531 25.265625 -46.40625 C 24.191406 -45.300781 23.65625 -43.976562 23.65625 -42.4375 L 23.65625 -25.359375 C 23.65625 -23.929688 24.191406 -22.660156 25.265625 -21.546875 C 26.347656 -20.441406 27.6875 -19.890625 29.28125 -19.890625 C 30.820312 -19.890625 32.160156 -20.441406 33.296875 -21.546875 C 34.441406 -22.660156 35.015625 -23.929688 35.015625 -25.359375 Z M 35.015625 -25.359375 "/></g></g></g><g fill="#d8d8d8" fill-opacity="1"><g transform="translate(315.407388, 80.771818)"><g><path d="M 87.359375 -5.890625 C 87.359375 -4.296875 86.785156 -2.914062 85.640625 -1.75 C 84.503906 -0.582031 83.113281 0 81.46875 0 L 70.109375 0 C 68.679688 -0.0507812 67.453125 -0.53125 66.421875 -1.4375 C 65.398438 -2.351562 64.75 -3.5 64.46875 -4.875 L 60.375 -28.953125 L 59.9375 -30.5625 L 59.765625 -29.71875 L 56.4375 -5.203125 C 56.269531 -3.785156 55.628906 -2.5625 54.515625 -1.53125 C 53.410156 -0.507812 52.117188 0 50.640625 0 L 38.34375 0 C 36.863281 0 35.566406 -0.507812 34.453125 -1.53125 C 33.347656 -2.5625 32.738281 -3.785156 32.625 -5.203125 L 28.953125 -31.421875 L 28.515625 -28.953125 L 24.25 -4.875 C 24.019531 -3.5 23.390625 -2.351562 22.359375 -1.4375 C 21.335938 -0.53125 20.117188 -0.0507812 18.703125 0 L 7.265625 0 C 5.671875 0 4.300781 -0.582031 3.15625 -1.75 C 2.019531 -2.914062 1.453125 -4.296875 1.453125 -5.890625 C 1.453125 -6.003906 1.453125 -6.144531 1.453125 -6.3125 C 1.453125 -6.488281 1.476562 -6.691406 1.53125 -6.921875 L 2.640625 -13.921875 L 6.40625 -36.296875 L 10.59375 -61.828125 C 10.925781 -63.648438 11.789062 -65.144531 13.1875 -66.3125 C 14.582031 -67.476562 16.222656 -68.0625 18.109375 -68.0625 L 32.875 -68.0625 C 34.863281 -68 36.582031 -67.328125 38.03125 -66.046875 C 39.488281 -64.765625 40.332031 -63.1875 40.5625 -61.3125 L 42.859375 -41.75 L 42.859375 -41.84375 C 42.859375 -41.445312 43.015625 -41.085938 43.328125 -40.765625 C 43.648438 -40.453125 44.007812 -40.296875 44.40625 -40.296875 C 45.257812 -40.296875 45.742188 -40.722656 45.859375 -41.578125 L 49.265625 -61.828125 C 49.554688 -63.648438 50.410156 -65.144531 51.828125 -66.3125 C 53.253906 -67.476562 54.90625 -68.0625 56.78125 -68.0625 L 71.5625 -68.0625 C 73.488281 -68 75.164062 -67.34375 76.59375 -66.09375 C 78.019531 -64.84375 78.90625 -63.304688 79.25 -61.484375 C 80.613281 -52.253906 81.75 -44.46875 82.65625 -38.125 C 83.570312 -31.78125 84.328125 -26.597656 84.921875 -22.578125 C 85.515625 -18.566406 85.984375 -15.4375 86.328125 -13.1875 C 86.671875 -10.9375 86.910156 -9.3125 87.046875 -8.3125 C 87.191406 -7.320312 87.28125 -6.695312 87.3125 -6.4375 C 87.34375 -6.1875 87.359375 -6.003906 87.359375 -5.890625 Z M 87.359375 -5.890625 "/></g></g></g><g fill="#d8d8d8" fill-opacity="1"><g transform="translate(404.210366, 80.771818)"><g><path d="M 26.640625 -49.78125 C 26.472656 -49.78125 26.332031 -49.691406 26.21875 -49.515625 C 26.101562 -49.347656 26.046875 -49.207031 26.046875 -49.09375 L 26.046875 -43.46875 C 26.046875 -43.125 26.242188 -42.953125 26.640625 -42.953125 L 39.1875 -42.953125 C 40.332031 -42.953125 41.300781 -42.550781 42.09375 -41.75 C 42.894531 -40.957031 43.296875 -39.992188 43.296875 -38.859375 L 43.296875 -29.546875 C 43.296875 -28.410156 42.894531 -27.441406 42.09375 -26.640625 C 41.300781 -25.847656 40.332031 -25.453125 39.1875 -25.453125 L 26.640625 -25.453125 C 26.242188 -25.453125 26.046875 -25.25 26.046875 -24.84375 L 26.046875 -19.390625 C 26.046875 -18.984375 26.242188 -18.78125 26.640625 -18.78125 L 43.96875 -18.78125 C 45.226562 -18.78125 46.296875 -18.320312 47.171875 -17.40625 C 48.054688 -16.5 48.5 -15.421875 48.5 -14.171875 L 48.5 -4.609375 C 48.5 -3.359375 48.054688 -2.304688 47.171875 -1.453125 C 46.296875 -0.597656 45.226562 -0.171875 43.96875 -0.171875 L 9.046875 -0.171875 C 7.285156 -0.171875 5.804688 -0.835938 4.609375 -2.171875 C 3.410156 -3.515625 2.8125 -5.4375 2.8125 -7.9375 L 2.8125 -63.53125 C 2.8125 -64.5 3.410156 -65.523438 4.609375 -66.609375 C 5.804688 -67.691406 7.285156 -68.234375 9.046875 -68.234375 L 43.96875 -68.234375 C 45.226562 -68.234375 46.296875 -67.804688 47.171875 -66.953125 C 48.054688 -66.097656 48.5 -65.039062 48.5 -63.78125 L 48.5 -54.21875 C 48.5 -53.03125 48.054688 -51.992188 47.171875 -51.109375 C 46.296875 -50.222656 45.226562 -49.78125 43.96875 -49.78125 Z M 26.640625 -49.78125 "/></g></g></g><g fill="#d8d8d8" fill-opacity="1"><g transform="translate(455.528258, 80.771818)"><g><path d="M 29.28125 -69.34375 C 32.875 -69.34375 36.332031 -68.6875 39.65625 -67.375 C 42.988281 -66.0625 45.960938 -64.253906 48.578125 -61.953125 C 51.203125 -59.648438 53.28125 -56.957031 54.8125 -53.875 C 56.351562 -50.800781 57.125 -47.5 57.125 -43.96875 L 57.125 -24.5 C 57.125 -20.863281 56.351562 -17.460938 54.8125 -14.296875 C 53.28125 -11.140625 51.203125 -8.378906 48.578125 -6.015625 C 45.960938 -3.648438 42.988281 -1.8125 39.65625 -0.5 C 36.332031 0.800781 32.875 1.453125 29.28125 1.453125 C 25.8125 1.453125 22.410156 0.800781 19.078125 -0.5 C 15.753906 -1.8125 12.765625 -3.648438 10.109375 -6.015625 C 7.460938 -8.378906 5.359375 -11.140625 3.796875 -14.296875 C 2.234375 -17.460938 1.453125 -20.863281 1.453125 -24.5 L 1.453125 -43.96875 C 1.453125 -47.5 2.234375 -50.800781 3.796875 -53.875 C 5.359375 -56.957031 7.460938 -59.648438 10.109375 -61.953125 C 12.765625 -64.253906 15.753906 -66.0625 19.078125 -67.375 C 22.410156 -68.6875 25.8125 -69.34375 29.28125 -69.34375 Z M 35.015625 -25.359375 L 35.015625 -42.4375 C 35.015625 -43.976562 34.441406 -45.300781 33.296875 -46.40625 C 32.160156 -47.519531 30.820312 -48.078125 29.28125 -48.078125 C 27.6875 -48.078125 26.347656 -47.519531 25.265625 -46.40625 C 24.191406 -45.300781 23.65625 -43.976562 23.65625 -42.4375 L 23.65625 -25.359375 C 23.65625 -23.929688 24.191406 -22.660156 25.265625 -21.546875 C 26.347656 -20.441406 27.6875 -19.890625 29.28125 -19.890625 C 30.820312 -19.890625 32.160156 -20.441406 33.296875 -21.546875 C 34.441406 -22.660156 35.015625 -23.929688 35.015625 -25.359375 Z M 35.015625 -25.359375 "/></g></g></g><g fill="#d8d8d8" fill-opacity="1"><g transform="translate(514.104052, 80.771818)"><g><path d="M 52.6875 -68.234375 C 54.445312 -68.234375 55.925781 -67.632812 57.125 -66.4375 C 58.320312 -65.238281 58.921875 -63.785156 58.921875 -62.078125 L 58.921875 -5.03125 C 58.921875 -3.320312 58.320312 -1.867188 57.125 -0.671875 C 55.925781 0.515625 54.445312 1.109375 52.6875 1.109375 L 41.921875 1.109375 C 40.554688 1.109375 39.359375 0.710938 38.328125 -0.078125 C 37.304688 -0.878906 36.539062 -1.878906 36.03125 -3.078125 L 26.046875 -24.25 L 26.046875 -5.03125 C 26.046875 -3.320312 25.445312 -1.867188 24.25 -0.671875 C 23.050781 0.515625 21.570312 1.109375 19.8125 1.109375 L 9.046875 1.109375 C 7.335938 1.109375 5.867188 0.515625 4.640625 -0.671875 C 3.421875 -1.867188 2.8125 -3.320312 2.8125 -5.03125 L 2.8125 -62.078125 C 2.8125 -63.785156 3.421875 -65.238281 4.640625 -66.4375 C 5.867188 -67.632812 7.335938 -68.234375 9.046875 -68.234375 L 19.8125 -68.234375 C 21.125 -68.234375 22.316406 -67.859375 23.390625 -67.109375 C 24.472656 -66.367188 25.242188 -65.40625 25.703125 -64.21875 L 35.6875 -42.015625 L 35.6875 -62.078125 C 35.6875 -63.785156 36.3125 -65.238281 37.5625 -66.4375 C 38.820312 -67.632812 40.273438 -68.234375 41.921875 -68.234375 Z M 52.6875 -68.234375 "/></g></g></g><g fill="#d8d8d8" fill-opacity="1"><g transform="translate(575.839205, 80.771818)"><g><path d="M 26.640625 -49.78125 C 26.472656 -49.78125 26.332031 -49.691406 26.21875 -49.515625 C 26.101562 -49.347656 26.046875 -49.207031 26.046875 -49.09375 L 26.046875 -43.46875 C 26.046875 -43.125 26.242188 -42.953125 26.640625 -42.953125 L 39.1875 -42.953125 C 40.332031 -42.953125 41.300781 -42.550781 42.09375 -41.75 C 42.894531 -40.957031 43.296875 -39.992188 43.296875 -38.859375 L 43.296875 -29.546875 C 43.296875 -28.410156 42.894531 -27.441406 42.09375 -26.640625 C 41.300781 -25.847656 40.332031 -25.453125 39.1875 -25.453125 L 26.640625 -25.453125 C 26.242188 -25.453125 26.046875 -25.25 26.046875 -24.84375 L 26.046875 -19.390625 C 26.046875 -18.984375 26.242188 -18.78125 26.640625 -18.78125 L 43.96875 -18.78125 C 45.226562 -18.78125 46.296875 -18.320312 47.171875 -17.40625 C 48.054688 -16.5 48.5 -15.421875 48.5 -14.171875 L 48.5 -4.609375 C 48.5 -3.359375 48.054688 -2.304688 47.171875 -1.453125 C 46.296875 -0.597656 45.226562 -0.171875 43.96875 -0.171875 L 9.046875 -0.171875 C 7.285156 -0.171875 5.804688 -0.835938 4.609375 -2.171875 C 3.410156 -3.515625 2.8125 -5.4375 2.8125 -7.9375 L 2.8125 -63.53125 C 2.8125 -64.5 3.410156 -65.523438 4.609375 -66.609375 C 5.804688 -67.691406 7.285156 -68.234375 9.046875 -68.234375 L 43.96875 -68.234375 C 45.226562 -68.234375 46.296875 -67.804688 47.171875 -66.953125 C 48.054688 -66.097656 48.5 -65.039062 48.5 -63.78125 L 48.5 -54.21875 C 48.5 -53.03125 48.054688 -51.992188 47.171875 -51.109375 C 46.296875 -50.222656 45.226562 -49.78125 43.96875 -49.78125 Z M 26.640625 -49.78125 "/></g></g></g><g fill="#d8d8d8" fill-opacity="1"><g transform="translate(627.157097, 80.771818)"><g/></g></g><g fill="#d8d8d8" fill-opacity="1"><g transform="translate(656.188844, 80.771818)"><g><path d="M 57.21875 -4.953125 C 57.550781 -3.703125 57.40625 -2.5625 56.78125 -1.53125 C 56.039062 -0.507812 55.128906 0.0234375 54.046875 0.078125 L 38.171875 0.078125 C 36.972656 0.078125 36.117188 -0.273438 35.609375 -0.984375 C 35.097656 -1.691406 34.8125 -2.101562 34.75 -2.21875 C 33.269531 -6.71875 32.117188 -10.160156 31.296875 -12.546875 C 30.472656 -14.941406 29.859375 -16.75 29.453125 -17.96875 C 29.054688 -19.195312 28.6875 -20.238281 28.34375 -21.09375 C 28.226562 -21.550781 28.015625 -21.847656 27.703125 -21.984375 C 27.390625 -22.128906 27.09375 -22.144531 26.8125 -22.03125 C 26.582031 -21.976562 26.335938 -21.835938 26.078125 -21.609375 C 25.828125 -21.378906 25.703125 -21.09375 25.703125 -20.75 L 25.703125 -3.75 C 25.703125 -2.675781 25.316406 -1.769531 24.546875 -1.03125 C 23.773438 -0.289062 22.851562 0.078125 21.78125 0.078125 L 6.75 0.078125 C 5.664062 0.078125 4.738281 -0.289062 3.96875 -1.03125 C 3.195312 -1.769531 2.8125 -2.675781 2.8125 -3.75 L 2.8125 -64.046875 C 2.8125 -65.128906 3.195312 -66.050781 3.96875 -66.8125 C 4.738281 -67.582031 5.664062 -67.96875 6.75 -67.96875 L 21.78125 -67.96875 C 22.851562 -67.96875 23.773438 -67.582031 24.546875 -66.8125 C 25.316406 -66.050781 25.703125 -65.128906 25.703125 -64.046875 L 25.703125 -45.6875 C 25.703125 -45.175781 25.898438 -44.816406 26.296875 -44.609375 C 26.691406 -44.410156 27.003906 -44.3125 27.234375 -44.3125 C 27.972656 -44.3125 28.429688 -44.597656 28.609375 -45.171875 C 28.722656 -45.398438 28.804688 -45.613281 28.859375 -45.8125 C 28.921875 -46.007812 28.976562 -46.191406 29.03125 -46.359375 C 29.144531 -46.648438 29.285156 -47.035156 29.453125 -47.515625 C 29.628906 -48.003906 29.773438 -48.363281 29.890625 -48.59375 C 30.234375 -49.550781 30.6875 -50.867188 31.25 -52.546875 C 31.820312 -54.234375 32.390625 -55.941406 32.953125 -57.671875 C 33.523438 -59.410156 33.992188 -60.878906 34.359375 -62.078125 C 34.734375 -63.273438 34.921875 -63.875 34.921875 -63.875 C 35.660156 -66.4375 36.972656 -67.71875 38.859375 -67.71875 L 53.875 -67.71875 C 54.957031 -67.71875 55.882812 -67.347656 56.65625 -66.609375 C 57.425781 -65.867188 57.8125 -64.957031 57.8125 -63.875 C 57.8125 -63.476562 57.722656 -63.019531 57.546875 -62.5 L 47.984375 -32.796875 Z M 57.21875 -4.953125 "/></g></g></g><g fill="#d8d8d8" fill-opacity="1"><g transform="translate(713.14225, 80.771818)"><g><path d="M 52.6875 -68.234375 C 54.445312 -68.234375 55.925781 -67.632812 57.125 -66.4375 C 58.320312 -65.238281 58.921875 -63.785156 58.921875 -62.078125 L 58.921875 -5.03125 C 58.921875 -3.320312 58.320312 -1.867188 57.125 -0.671875 C 55.925781 0.515625 54.445312 1.109375 52.6875 1.109375 L 41.921875 1.109375 C 40.554688 1.109375 39.359375 0.710938 38.328125 -0.078125 C 37.304688 -0.878906 36.539062 -1.878906 36.03125 -3.078125 L 26.046875 -24.25 L 26.046875 -5.03125 C 26.046875 -3.320312 25.445312 -1.867188 24.25 -0.671875 C 23.050781 0.515625 21.570312 1.109375 19.8125 1.109375 L 9.046875 1.109375 C 7.335938 1.109375 5.867188 0.515625 4.640625 -0.671875 C 3.421875 -1.867188 2.8125 -3.320312 2.8125 -5.03125 L 2.8125 -62.078125 C 2.8125 -63.785156 3.421875 -65.238281 4.640625 -66.4375 C 5.867188 -67.632812 7.335938 -68.234375 9.046875 -68.234375 L 19.8125 -68.234375 C 21.125 -68.234375 22.316406 -67.859375 23.390625 -67.109375 C 24.472656 -66.367188 25.242188 -65.40625 25.703125 -64.21875 L 35.6875 -42.015625 L 35.6875 -62.078125 C 35.6875 -63.785156 36.3125 -65.238281 37.5625 -66.4375 C 38.820312 -67.632812 40.273438 -68.234375 41.921875 -68.234375 Z M 52.6875 -68.234375 "/></g></g></g><g fill="#d8d8d8" fill-opacity="1"><g transform="translate(774.877404, 80.771818)"><g><path d="M 29.28125 -69.34375 C 32.875 -69.34375 36.332031 -68.6875 39.65625 -67.375 C 42.988281 -66.0625 45.960938 -64.253906 48.578125 -61.953125 C 51.203125 -59.648438 53.28125 -56.957031 54.8125 -53.875 C 56.351562 -50.800781 57.125 -47.5 57.125 -43.96875 L 57.125 -24.5 C 57.125 -20.863281 56.351562 -17.460938 54.8125 -14.296875 C 53.28125 -11.140625 51.203125 -8.378906 48.578125 -6.015625 C 45.960938 -3.648438 42.988281 -1.8125 39.65625 -0.5 C 36.332031 0.800781 32.875 1.453125 29.28125 1.453125 C 25.8125 1.453125 22.410156 0.800781 19.078125 -0.5 C 15.753906 -1.8125 12.765625 -3.648438 10.109375 -6.015625 C 7.460938 -8.378906 5.359375 -11.140625 3.796875 -14.296875 C 2.234375 -17.460938 1.453125 -20.863281 1.453125 -24.5 L 1.453125 -43.96875 C 1.453125 -47.5 2.234375 -50.800781 3.796875 -53.875 C 5.359375 -56.957031 7.460938 -59.648438 10.109375 -61.953125 C 12.765625 -64.253906 15.753906 -66.0625 19.078125 -67.375 C 22.410156 -68.6875 25.8125 -69.34375 29.28125 -69.34375 Z M 35.015625 -25.359375 L 35.015625 -42.4375 C 35.015625 -43.976562 34.441406 -45.300781 33.296875 -46.40625 C 32.160156 -47.519531 30.820312 -48.078125 29.28125 -48.078125 C 27.6875 -48.078125 26.347656 -47.519531 25.265625 -46.40625 C 24.191406 -45.300781 23.65625 -43.976562 23.65625 -42.4375 L 23.65625 -25.359375 C 23.65625 -23.929688 24.191406 -22.660156 25.265625 -21.546875 C 26.347656 -20.441406 27.6875 -19.890625 29.28125 -19.890625 C 30.820312 -19.890625 32.160156 -20.441406 33.296875 -21.546875 C 34.441406 -22.660156 35.015625 -23.929688 35.015625 -25.359375 Z M 35.015625 -25.359375 "/></g></g></g><g fill="#d8d8d8" fill-opacity="1"><g transform="translate(833.453198, 80.771818)"><g><path d="M 87.09375 -58.5 L 79.5 -6.65625 C 79.21875 -4.78125 78.363281 -3.210938 76.9375 -1.953125 C 75.507812 -0.703125 73.832031 -0.0507812 71.90625 0 L 57.046875 0 C 55.160156 0 53.503906 -0.597656 52.078125 -1.796875 C 50.660156 -2.992188 49.753906 -4.472656 49.359375 -6.234375 L 46.109375 -26.5625 C 45.941406 -27.414062 45.429688 -27.84375 44.578125 -27.84375 C 43.722656 -27.84375 43.238281 -27.359375 43.125 -26.390625 L 40.734375 -6.828125 C 40.503906 -4.890625 39.660156 -3.28125 38.203125 -2 C 36.753906 -0.71875 35.035156 -0.0507812 33.046875 0 L 18.28125 0 C 16.394531 0 14.722656 -0.597656 13.265625 -1.796875 C 11.816406 -2.992188 10.953125 -4.472656 10.671875 -6.234375 L 6.40625 -31.9375 L 2.734375 -54.390625 L 1.53125 -61.390625 C 1.476562 -61.796875 1.453125 -62.164062 1.453125 -62.5 C 1.453125 -64.09375 2.035156 -65.457031 3.203125 -66.59375 C 4.367188 -67.738281 5.773438 -68.3125 7.421875 -68.3125 L 18.78125 -68.3125 C 20.207031 -68.257812 21.445312 -67.757812 22.5 -66.8125 C 23.550781 -65.875 24.191406 -64.722656 24.421875 -63.359375 L 28.609375 -39.28125 L 29.03125 -36.796875 L 32.703125 -63.015625 C 32.867188 -64.492188 33.507812 -65.742188 34.625 -66.765625 C 35.738281 -67.796875 37.035156 -68.3125 38.515625 -68.3125 L 50.8125 -68.3125 C 52.34375 -68.3125 53.648438 -67.796875 54.734375 -66.765625 C 55.816406 -65.742188 56.472656 -64.492188 56.703125 -63.015625 L 60.03125 -38.515625 L 60.203125 -37.578125 L 60.546875 -39.28125 L 64.8125 -63.359375 C 65.039062 -64.722656 65.664062 -65.875 66.6875 -66.8125 C 67.71875 -67.757812 68.941406 -68.257812 70.359375 -68.3125 L 81.796875 -68.3125 C 83.390625 -68.3125 84.753906 -67.738281 85.890625 -66.59375 C 87.035156 -65.457031 87.609375 -64.09375 87.609375 -62.5 C 87.609375 -61.988281 87.582031 -61.617188 87.53125 -61.390625 Z M 87.09375 -58.5 "/></g></g></g><g fill="#d8d8d8" fill-opacity="1"><g transform="translate(922.51236, 80.771818)"><g/></g></g><g fill="#d8d8d8" fill-opacity="1"><g transform="translate(951.544106, 80.771818)"><g><path d="M 67.71875 -61.484375 L 47.484375 -32.53125 L 47.484375 -4.875 C 47.484375 -3.445312 46.894531 -2.273438 45.71875 -1.359375 C 44.550781 -0.453125 43.316406 0 42.015625 0 L 28.171875 0 C 26.867188 0 25.644531 -0.453125 24.5 -1.359375 C 23.363281 -2.273438 22.796875 -3.445312 22.796875 -4.875 L 22.796875 -32.53125 L 2.5625 -61.484375 C 1.820312 -61.992188 1.453125 -62.875 1.453125 -64.125 C 1.453125 -65.4375 1.890625 -66.472656 2.765625 -67.234375 C 3.648438 -68.003906 4.632812 -68.390625 5.71875 -68.390625 L 21.265625 -68.390625 C 21.722656 -68.390625 22.265625 -68.289062 22.890625 -68.09375 C 23.515625 -67.894531 24.023438 -67.457031 24.421875 -66.78125 L 35.09375 -51.234375 L 46.359375 -66.78125 C 47.109375 -67.851562 47.992188 -68.390625 49.015625 -68.390625 L 64.46875 -68.390625 C 65.601562 -68.390625 66.597656 -68.003906 67.453125 -67.234375 C 68.304688 -66.472656 68.734375 -65.4375 68.734375 -64.125 C 68.734375 -63.5625 68.632812 -63.035156 68.4375 -62.546875 C 68.238281 -62.066406 68 -61.710938 67.71875 -61.484375 Z M 67.71875 -61.484375 "/></g></g></g><g fill="#d8d8d8" fill-opacity="1"><g transform="translate(1021.732599, 80.771818)"><g><path d="M 29.28125 -69.34375 C 32.875 -69.34375 36.332031 -68.6875 39.65625 -67.375 C 42.988281 -66.0625 45.960938 -64.253906 48.578125 -61.953125 C 51.203125 -59.648438 53.28125 -56.957031 54.8125 -53.875 C 56.351562 -50.800781 57.125 -47.5 57.125 -43.96875 L 57.125 -24.5 C 57.125 -20.863281 56.351562 -17.460938 54.8125 -14.296875 C 53.28125 -11.140625 51.203125 -8.378906 48.578125 -6.015625 C 45.960938 -3.648438 42.988281 -1.8125 39.65625 -0.5 C 36.332031 0.800781 32.875 1.453125 29.28125 1.453125 C 25.8125 1.453125 22.410156 0.800781 19.078125 -0.5 C 15.753906 -1.8125 12.765625 -3.648438 10.109375 -6.015625 C 7.460938 -8.378906 5.359375 -11.140625 3.796875 -14.296875 C 2.234375 -17.460938 1.453125 -20.863281 1.453125 -24.5 L 1.453125 -43.96875 C 1.453125 -47.5 2.234375 -50.800781 3.796875 -53.875 C 5.359375 -56.957031 7.460938 -59.648438 10.109375 -61.953125 C 12.765625 -64.253906 15.753906 -66.0625 19.078125 -67.375 C 22.410156 -68.6875 25.8125 -69.34375 29.28125 -69.34375 Z M 35.015625 -25.359375 L 35.015625 -42.4375 C 35.015625 -43.976562 34.441406 -45.300781 33.296875 -46.40625 C 32.160156 -47.519531 30.820312 -48.078125 29.28125 -48.078125 C 27.6875 -48.078125 26.347656 -47.519531 25.265625 -46.40625 C 24.191406 -45.300781 23.65625 -43.976562 23.65625 -42.4375 L 23.65625 -25.359375 C 23.65625 -23.929688 24.191406 -22.660156 25.265625 -21.546875 C 26.347656 -20.441406 27.6875 -19.890625 29.28125 -19.890625 C 30.820312 -19.890625 32.160156 -20.441406 33.296875 -21.546875 C 34.441406 -22.660156 35.015625 -23.929688 35.015625 -25.359375 Z M 35.015625 -25.359375 "/></g></g></g><g fill="#d8d8d8" fill-opacity="1"><g transform="translate(1080.308393, 80.771818)"><g><path d="M 52 -68.140625 C 53.363281 -68.140625 54.546875 -67.625 55.546875 -66.59375 C 56.546875 -65.570312 57.046875 -64.378906 57.046875 -63.015625 L 57.046875 -23.3125 C 56.867188 -19.84375 56 -16.597656 54.4375 -13.578125 C 52.875 -10.554688 50.796875 -7.90625 48.203125 -5.625 C 45.609375 -3.351562 42.675781 -1.578125 39.40625 -0.296875 C 36.132812 0.984375 32.734375 1.625 29.203125 1.625 C 25.617188 1.625 22.160156 0.941406 18.828125 -0.421875 C 15.492188 -1.785156 12.53125 -3.648438 9.9375 -6.015625 C 7.351562 -8.378906 5.289062 -11.140625 3.75 -14.296875 C 2.21875 -17.460938 1.453125 -20.835938 1.453125 -24.421875 L 1.453125 -64.984375 C 1.453125 -65.835938 1.75 -66.5625 2.34375 -67.15625 C 2.945312 -67.757812 3.644531 -68.0625 4.4375 -68.0625 L 23.140625 -68.0625 C 23.941406 -68.0625 24.640625 -67.757812 25.234375 -67.15625 C 25.828125 -66.5625 26.125 -65.835938 26.125 -64.984375 L 26.125 -24.25 C 26.125 -23.226562 26.492188 -22.359375 27.234375 -21.640625 C 27.972656 -20.929688 28.828125 -20.578125 29.796875 -20.578125 C 30.828125 -20.578125 31.710938 -20.929688 32.453125 -21.640625 C 33.191406 -22.359375 33.5625 -23.226562 33.5625 -24.25 L 33.5625 -63.015625 C 33.5625 -64.378906 34.046875 -65.570312 35.015625 -66.59375 C 35.984375 -67.625 37.148438 -68.140625 38.515625 -68.140625 Z M 52 -68.140625 "/></g></g></g><g fill="#d8d8d8" fill-opacity="1"><g transform="translate(1138.798838, 80.771818)"><g><path d="M 8.96875 -51.828125 C 9.757812 -51.828125 10.453125 -52.113281 11.046875 -52.6875 C 11.648438 -53.257812 11.953125 -53.914062 11.953125 -54.65625 L 11.953125 -65.40625 C 11.953125 -66.207031 11.648438 -66.890625 11.046875 -67.453125 C 10.453125 -68.023438 9.757812 -68.3125 8.96875 -68.3125 L 4.4375 -68.3125 C 3.582031 -68.3125 2.867188 -68.023438 2.296875 -67.453125 C 1.734375 -66.890625 1.453125 -66.207031 1.453125 -65.40625 L 1.453125 -54.65625 C 1.453125 -53.914062 1.734375 -53.257812 2.296875 -52.6875 C 2.867188 -52.113281 3.582031 -51.828125 4.4375 -51.828125 Z M 8.96875 -51.828125 "/></g></g></g><g fill="#d8d8d8" fill-opacity="1"><g transform="translate(1152.204692, 80.771818)"><g><path d="M 55.9375 -7.265625 C 56.382812 -5.265625 56.023438 -3.59375 54.859375 -2.25 C 53.691406 -0.914062 52.285156 -0.25 50.640625 -0.25 L 36.796875 -0.25 C 35.378906 -0.25 33.882812 -0.847656 32.3125 -2.046875 C 30.75 -3.242188 29.738281 -4.8125 29.28125 -6.75 L 27.0625 -17.15625 L 26.390625 -20.671875 C 26.390625 -20.953125 26.21875 -21.09375 25.875 -21.09375 C 25.59375 -21.09375 25.453125 -20.921875 25.453125 -20.578125 L 25.453125 -6.3125 C 25.453125 -5.632812 25.40625 -5.007812 25.3125 -4.4375 C 25.226562 -3.875 24.789062 -3.164062 24 -2.3125 C 23.425781 -1.625 22.738281 -1.109375 21.9375 -0.765625 C 21.144531 -0.421875 20.320312 -0.25 19.46875 -0.25 L 8.53125 -0.25 C 6.882812 -0.25 5.476562 -0.832031 4.3125 -2 C 3.144531 -3.164062 2.5625 -4.546875 2.5625 -6.140625 L 2.5625 -60.546875 C 2.5625 -62.992188 3.144531 -64.867188 4.3125 -66.171875 C 5.476562 -67.484375 6.882812 -68.140625 8.53125 -68.140625 L 39.359375 -68.234375 C 42.492188 -68.234375 45.328125 -67.363281 47.859375 -65.625 C 50.390625 -63.882812 52.410156 -61.4375 53.921875 -58.28125 C 55.429688 -55.125 56.1875 -51.351562 56.1875 -46.96875 C 56.1875 -43.269531 55.628906 -40.007812 54.515625 -37.1875 C 53.410156 -34.363281 51.914062 -31.84375 50.03125 -29.625 C 50.257812 -29.289062 50.460938 -28.753906 50.640625 -28.015625 Z M 33.21875 -44.75 C 33.21875 -46.164062 32.71875 -47.375 31.71875 -48.375 C 30.726562 -49.375 29.546875 -49.875 28.171875 -49.875 L 26.5625 -49.875 C 25.820312 -49.875 25.453125 -49.503906 25.453125 -48.765625 L 25.453125 -39.625 C 25.453125 -38.882812 25.820312 -38.515625 26.5625 -38.515625 L 28.171875 -38.515625 C 29.546875 -38.515625 30.726562 -39.007812 31.71875 -40 C 32.71875 -41 33.21875 -42.179688 33.21875 -43.546875 Z M 33.21875 -44.75 "/></g></g></g><g fill="#d8d8d8" fill-opacity="1"><g transform="translate(1211.207438, 80.771818)"><g><path d="M 26.640625 -49.78125 C 26.472656 -49.78125 26.332031 -49.691406 26.21875 -49.515625 C 26.101562 -49.347656 26.046875 -49.207031 26.046875 -49.09375 L 26.046875 -43.46875 C 26.046875 -43.125 26.242188 -42.953125 26.640625 -42.953125 L 39.1875 -42.953125 C 40.332031 -42.953125 41.300781 -42.550781 42.09375 -41.75 C 42.894531 -40.957031 43.296875 -39.992188 43.296875 -38.859375 L 43.296875 -29.546875 C 43.296875 -28.410156 42.894531 -27.441406 42.09375 -26.640625 C 41.300781 -25.847656 40.332031 -25.453125 39.1875 -25.453125 L 26.640625 -25.453125 C 26.242188 -25.453125 26.046875 -25.25 26.046875 -24.84375 L 26.046875 -19.390625 C 26.046875 -18.984375 26.242188 -18.78125 26.640625 -18.78125 L 43.96875 -18.78125 C 45.226562 -18.78125 46.296875 -18.320312 47.171875 -17.40625 C 48.054688 -16.5 48.5 -15.421875 48.5 -14.171875 L 48.5 -4.609375 C 48.5 -3.359375 48.054688 -2.304688 47.171875 -1.453125 C 46.296875 -0.597656 45.226562 -0.171875 43.96875 -0.171875 L 9.046875 -0.171875 C 7.285156 -0.171875 5.804688 -0.835938 4.609375 -2.171875 C 3.410156 -3.515625 2.8125 -5.4375 2.8125 -7.9375 L 2.8125 -63.53125 C 2.8125 -64.5 3.410156 -65.523438 4.609375 -66.609375 C 5.804688 -67.691406 7.285156 -68.234375 9.046875 -68.234375 L 43.96875 -68.234375 C 45.226562 -68.234375 46.296875 -67.804688 47.171875 -66.953125 C 48.054688 -66.097656 48.5 -65.039062 48.5 -63.78125 L 48.5 -54.21875 C 48.5 -53.03125 48.054688 -51.992188 47.171875 -51.109375 C 46.296875 -50.222656 45.226562 -49.78125 43.96875 -49.78125 Z M 26.640625 -49.78125 "/></g></g></g><g fill="#d8d8d8" fill-opacity="1"><g transform="translate(1262.525329, 80.771818)"><g/></g></g><g fill="#d8d8d8" fill-opacity="1"><g transform="translate(1291.557076, 80.771818)"><g><path d="M 55.9375 -7.265625 C 56.382812 -5.265625 56.023438 -3.59375 54.859375 -2.25 C 53.691406 -0.914062 52.285156 -0.25 50.640625 -0.25 L 36.796875 -0.25 C 35.378906 -0.25 33.882812 -0.847656 32.3125 -2.046875 C 30.75 -3.242188 29.738281 -4.8125 29.28125 -6.75 L 27.0625 -17.15625 L 26.390625 -20.671875 C 26.390625 -20.953125 26.21875 -21.09375 25.875 -21.09375 C 25.59375 -21.09375 25.453125 -20.921875 25.453125 -20.578125 L 25.453125 -6.3125 C 25.453125 -5.632812 25.40625 -5.007812 25.3125 -4.4375 C 25.226562 -3.875 24.789062 -3.164062 24 -2.3125 C 23.425781 -1.625 22.738281 -1.109375 21.9375 -0.765625 C 21.144531 -0.421875 20.320312 -0.25 19.46875 -0.25 L 8.53125 -0.25 C 6.882812 -0.25 5.476562 -0.832031 4.3125 -2 C 3.144531 -3.164062 2.5625 -4.546875 2.5625 -6.140625 L 2.5625 -60.546875 C 2.5625 -62.992188 3.144531 -64.867188 4.3125 -66.171875 C 5.476562 -67.484375 6.882812 -68.140625 8.53125 -68.140625 L 39.359375 -68.234375 C 42.492188 -68.234375 45.328125 -67.363281 47.859375 -65.625 C 50.390625 -63.882812 52.410156 -61.4375 53.921875 -58.28125 C 55.429688 -55.125 56.1875 -51.351562 56.1875 -46.96875 C 56.1875 -43.269531 55.628906 -40.007812 54.515625 -37.1875 C 53.410156 -34.363281 51.914062 -31.84375 50.03125 -29.625 C 50.257812 -29.289062 50.460938 -28.753906 50.640625 -28.015625 Z M 33.21875 -44.75 C 33.21875 -46.164062 32.71875 -47.375 31.71875 -48.375 C 30.726562 -49.375 29.546875 -49.875 28.171875 -49.875 L 26.5625 -49.875 C 25.820312 -49.875 25.453125 -49.503906 25.453125 -48.765625 L 25.453125 -39.625 C 25.453125 -38.882812 25.820312 -38.515625 26.5625 -38.515625 L 28.171875 -38.515625 C 29.546875 -38.515625 30.726562 -39.007812 31.71875 -40 C 32.71875 -41 33.21875 -42.179688 33.21875 -43.546875 Z M 33.21875 -44.75 "/></g></g></g><g fill="#d8d8d8" fill-opacity="1"><g transform="translate(1350.559822, 80.771818)"><g><path d="M 52 -68.140625 C 53.363281 -68.140625 54.546875 -67.625 55.546875 -66.59375 C 56.546875 -65.570312 57.046875 -64.378906 57.046875 -63.015625 L 57.046875 -23.3125 C 56.867188 -19.84375 56 -16.597656 54.4375 -13.578125 C 52.875 -10.554688 50.796875 -7.90625 48.203125 -5.625 C 45.609375 -3.351562 42.675781 -1.578125 39.40625 -0.296875 C 36.132812 0.984375 32.734375 1.625 29.203125 1.625 C 25.617188 1.625 22.160156 0.941406 18.828125 -0.421875 C 15.492188 -1.785156 12.53125 -3.648438 9.9375 -6.015625 C 7.351562 -8.378906 5.289062 -11.140625 3.75 -14.296875 C 2.21875 -17.460938 1.453125 -20.835938 1.453125 -24.421875 L 1.453125 -64.984375 C 1.453125 -65.835938 1.75 -66.5625 2.34375 -67.15625 C 2.945312 -67.757812 3.644531 -68.0625 4.4375 -68.0625 L 23.140625 -68.0625 C 23.941406 -68.0625 24.640625 -67.757812 25.234375 -67.15625 C 25.828125 -66.5625 26.125 -65.835938 26.125 -64.984375 L 26.125 -24.25 C 26.125 -23.226562 26.492188 -22.359375 27.234375 -21.640625 C 27.972656 -20.929688 28.828125 -20.578125 29.796875 -20.578125 C 30.828125 -20.578125 31.710938 -20.929688 32.453125 -21.640625 C 33.191406 -22.359375 33.5625 -23.226562 33.5625 -24.25 L 33.5625 -63.015625 C 33.5625 -64.378906 34.046875 -65.570312 35.015625 -66.59375 C 35.984375 -67.625 37.148438 -68.140625 38.515625 -68.140625 Z M 52 -68.140625 "/></g></g></g><g fill="#d8d8d8" fill-opacity="1"><g transform="translate(1409.050198, 80.771818)"><g><path d="M 52.6875 -68.234375 C 54.445312 -68.234375 55.925781 -67.632812 57.125 -66.4375 C 58.320312 -65.238281 58.921875 -63.785156 58.921875 -62.078125 L 58.921875 -5.03125 C 58.921875 -3.320312 58.320312 -1.867188 57.125 -0.671875 C 55.925781 0.515625 54.445312 1.109375 52.6875 1.109375 L 41.921875 1.109375 C 40.554688 1.109375 39.359375 0.710938 38.328125 -0.078125 C 37.304688 -0.878906 36.539062 -1.878906 36.03125 -3.078125 L 26.046875 -24.25 L 26.046875 -5.03125 C 26.046875 -3.320312 25.445312 -1.867188 24.25 -0.671875 C 23.050781 0.515625 21.570312 1.109375 19.8125 1.109375 L 9.046875 1.109375 C 7.335938 1.109375 5.867188 0.515625 4.640625 -0.671875 C 3.421875 -1.867188 2.8125 -3.320312 2.8125 -5.03125 L 2.8125 -62.078125 C 2.8125 -63.785156 3.421875 -65.238281 4.640625 -66.4375 C 5.867188 -67.632812 7.335938 -68.234375 9.046875 -68.234375 L 19.8125 -68.234375 C 21.125 -68.234375 22.316406 -67.859375 23.390625 -67.109375 C 24.472656 -66.367188 25.242188 -65.40625 25.703125 -64.21875 L 35.6875 -42.015625 L 35.6875 -62.078125 C 35.6875 -63.785156 36.3125 -65.238281 37.5625 -66.4375 C 38.820312 -67.632812 40.273438 -68.234375 41.921875 -68.234375 Z M 52.6875 -68.234375 "/></g></g></g><g fill="#d8d8d8" fill-opacity="1"><g transform="translate(1470.785352, 80.771818)"><g><path d="M 52.6875 -68.234375 C 54.445312 -68.234375 55.925781 -67.632812 57.125 -66.4375 C 58.320312 -65.238281 58.921875 -63.785156 58.921875 -62.078125 L 58.921875 -5.03125 C 58.921875 -3.320312 58.320312 -1.867188 57.125 -0.671875 C 55.925781 0.515625 54.445312 1.109375 52.6875 1.109375 L 41.921875 1.109375 C 40.554688 1.109375 39.359375 0.710938 38.328125 -0.078125 C 37.304688 -0.878906 36.539062 -1.878906 36.03125 -3.078125 L 26.046875 -24.25 L 26.046875 -5.03125 C 26.046875 -3.320312 25.445312 -1.867188 24.25 -0.671875 C 23.050781 0.515625 21.570312 1.109375 19.8125 1.109375 L 9.046875 1.109375 C 7.335938 1.109375 5.867188 0.515625 4.640625 -0.671875 C 3.421875 -1.867188 2.8125 -3.320312 2.8125 -5.03125 L 2.8125 -62.078125 C 2.8125 -63.785156 3.421875 -65.238281 4.640625 -66.4375 C 5.867188 -67.632812 7.335938 -68.234375 9.046875 -68.234375 L 19.8125 -68.234375 C 21.125 -68.234375 22.316406 -67.859375 23.390625 -67.109375 C 24.472656 -66.367188 25.242188 -65.40625 25.703125 -64.21875 L 35.6875 -42.015625 L 35.6875 -62.078125 C 35.6875 -63.785156 36.3125 -65.238281 37.5625 -66.4375 C 38.820312 -67.632812 40.273438 -68.234375 41.921875 -68.234375 Z M 52.6875 -68.234375 "/></g></g></g><g fill="#d8d8d8" fill-opacity="1"><g transform="translate(1532.520506, 80.771818)"><g><path d="M 8.875 0.078125 C 7.226562 0.078125 5.804688 -0.546875 4.609375 -1.796875 C 3.410156 -3.046875 2.8125 -4.46875 2.8125 -6.0625 L 2.8125 -62.171875 C 2.8125 -63.984375 3.410156 -65.457031 4.609375 -66.59375 C 5.804688 -67.738281 7.226562 -68.3125 8.875 -68.3125 L 19.46875 -68.3125 C 21.289062 -68.3125 22.769531 -67.738281 23.90625 -66.59375 C 25.039062 -65.457031 25.609375 -63.984375 25.609375 -62.171875 L 25.609375 -6.0625 C 25.609375 -4.46875 25.039062 -3.046875 23.90625 -1.796875 C 22.769531 -0.546875 21.289062 0.078125 19.46875 0.078125 Z M 8.875 0.078125 "/></g></g></g><g fill="#d8d8d8" fill-opacity="1"><g transform="translate(1560.954534, 80.771818)"><g><path d="M 52.6875 -68.234375 C 54.445312 -68.234375 55.925781 -67.632812 57.125 -66.4375 C 58.320312 -65.238281 58.921875 -63.785156 58.921875 -62.078125 L 58.921875 -5.03125 C 58.921875 -3.320312 58.320312 -1.867188 57.125 -0.671875 C 55.925781 0.515625 54.445312 1.109375 52.6875 1.109375 L 41.921875 1.109375 C 40.554688 1.109375 39.359375 0.710938 38.328125 -0.078125 C 37.304688 -0.878906 36.539062 -1.878906 36.03125 -3.078125 L 26.046875 -24.25 L 26.046875 -5.03125 C 26.046875 -3.320312 25.445312 -1.867188 24.25 -0.671875 C 23.050781 0.515625 21.570312 1.109375 19.8125 1.109375 L 9.046875 1.109375 C 7.335938 1.109375 5.867188 0.515625 4.640625 -0.671875 C 3.421875 -1.867188 2.8125 -3.320312 2.8125 -5.03125 L 2.8125 -62.078125 C 2.8125 -63.785156 3.421875 -65.238281 4.640625 -66.4375 C 5.867188 -67.632812 7.335938 -68.234375 9.046875 -68.234375 L 19.8125 -68.234375 C 21.125 -68.234375 22.316406 -67.859375 23.390625 -67.109375 C 24.472656 -66.367188 25.242188 -65.40625 25.703125 -64.21875 L 35.6875 -42.015625 L 35.6875 -62.078125 C 35.6875 -63.785156 36.3125 -65.238281 37.5625 -66.4375 C 38.820312 -67.632812 40.273438 -68.234375 41.921875 -68.234375 Z M 52.6875 -68.234375 "/></g></g></g><g fill="#d8d8d8" fill-opacity="1"><g transform="translate(1622.689687, 80.771818)"><g><path d="M 47.8125 -40.140625 C 49.8125 -40.140625 51.519531 -39.285156 52.9375 -37.578125 C 54.363281 -35.867188 55.078125 -33.503906 55.078125 -30.484375 L 55.078125 -22.796875 C 55.078125 -19.492188 54.492188 -16.488281 53.328125 -13.78125 C 52.160156 -11.082031 50.609375 -8.648438 48.671875 -6.484375 C 46.910156 -4.492188 44.460938 -2.726562 41.328125 -1.1875 C 38.191406 0.34375 34.804688 1.109375 31.171875 1.109375 L 24.5 1.109375 C 23.363281 1.109375 21.800781 0.894531 19.8125 0.46875 C 17.820312 0.0390625 15.703125 -0.796875 13.453125 -2.046875 C 11.203125 -3.296875 9.023438 -5.144531 6.921875 -7.59375 C 5.441406 -9.363281 4.160156 -11.554688 3.078125 -14.171875 C 1.992188 -16.796875 1.453125 -19.671875 1.453125 -22.796875 L 1.453125 -45.59375 C 1.453125 -48.101562 1.921875 -50.679688 2.859375 -53.328125 C 3.796875 -55.972656 5.175781 -58.4375 7 -60.71875 C 9.050781 -63.21875 11.738281 -65.28125 15.0625 -66.90625 C 18.394531 -68.53125 21.882812 -69.34375 25.53125 -69.34375 L 30.0625 -69.34375 C 34.4375 -69.34375 38.117188 -68.585938 41.109375 -67.078125 C 44.097656 -65.566406 46.5625 -63.785156 48.5 -61.734375 C 49.863281 -60.316406 51 -58.78125 51.90625 -57.125 C 52.820312 -55.476562 53.492188 -54 53.921875 -52.6875 C 54.347656 -51.375 54.5625 -50.519531 54.5625 -50.125 L 54.5625 -49.09375 C 54.5625 -48.875 54.503906 -48.476562 54.390625 -47.90625 C 54.273438 -47.332031 53.90625 -46.734375 53.28125 -46.109375 C 52.71875 -45.535156 52.148438 -45.191406 51.578125 -45.078125 C 51.003906 -44.972656 50.601562 -44.921875 50.375 -44.921875 L 35.359375 -44.921875 C 35.066406 -44.921875 34.78125 -44.972656 34.5 -45.078125 C 34.21875 -45.191406 33.929688 -45.453125 33.640625 -45.859375 C 33.179688 -46.648438 32.46875 -47.316406 31.5 -47.859375 C 30.539062 -48.398438 29.488281 -48.671875 28.34375 -48.671875 C 26.414062 -48.671875 24.867188 -47.972656 23.703125 -46.578125 C 22.535156 -45.179688 21.953125 -43.742188 21.953125 -42.265625 L 21.953125 -26.125 C 21.953125 -24.363281 22.578125 -22.851562 23.828125 -21.59375 C 25.078125 -20.34375 26.582031 -19.71875 28.34375 -19.71875 C 30.164062 -19.71875 31.703125 -20.273438 32.953125 -21.390625 C 34.210938 -22.503906 34.84375 -23.941406 34.84375 -25.703125 L 34.84375 -28.4375 L 32.625 -28.4375 C 31.476562 -28.4375 30.445312 -28.816406 29.53125 -29.578125 C 28.625 -30.347656 28.171875 -31.304688 28.171875 -32.453125 L 28.171875 -35.78125 C 28.171875 -36.175781 28.269531 -36.65625 28.46875 -37.21875 C 28.675781 -37.789062 29.035156 -38.335938 29.546875 -38.859375 C 30.171875 -39.484375 30.820312 -39.851562 31.5 -39.96875 C 32.1875 -40.082031 32.53125 -40.140625 32.53125 -40.140625 Z M 47.8125 -40.140625 "/></g></g></g><g fill="#d8d8d8" fill-opacity="1"><g transform="translate(1679.21621, 80.771818)"><g><path d="M 11.53125 11.359375 C 12.945312 11.359375 13.941406 10.332031 14.515625 8.28125 L 17.25 -2.984375 C 17.644531 -4.523438 17.53125 -5.976562 16.90625 -7.34375 C 16.28125 -8.707031 15.398438 -9.390625 14.265625 -9.390625 L 7.265625 -9.390625 C 6.628906 -9.390625 6.039062 -9.101562 5.5 -8.53125 C 4.96875 -7.96875 4.585938 -7.203125 4.359375 -6.234375 L 1.625 4.953125 C 1.28125 6.546875 1.421875 8.007812 2.046875 9.34375 C 2.671875 10.6875 3.523438 11.359375 4.609375 11.359375 Z M 11.53125 11.359375 "/></g></g></g><g fill="#d8d8d8" fill-opacity="1"><g transform="translate(532.973702, 199.353041)"><g><path d="M 50.546875 -22.71875 C 50.546875 -19.300781 49.90625 -16.109375 48.625 -13.140625 C 47.34375 -10.179688 45.578125 -7.578125 43.328125 -5.328125 C 41.085938 -3.085938 38.472656 -1.335938 35.484375 -0.078125 C 32.492188 1.171875 29.316406 1.796875 25.953125 1.796875 C 22.535156 1.796875 19.347656 1.171875 16.390625 -0.078125 C 13.429688 -1.335938 10.828125 -3.085938 8.578125 -5.328125 C 6.328125 -7.578125 4.578125 -10.179688 3.328125 -13.140625 C 2.078125 -16.109375 1.453125 -19.300781 1.453125 -22.71875 L 1.453125 -33.90625 C 1.453125 -34.757812 1.75 -35.484375 2.34375 -36.078125 C 2.945312 -36.671875 3.675781 -36.96875 4.53125 -36.96875 L 21.609375 -36.96875 C 22.460938 -36.96875 23.1875 -36.671875 23.78125 -36.078125 C 24.375 -35.484375 24.671875 -34.757812 24.671875 -33.90625 L 24.671875 -25.453125 C 24.785156 -24.421875 25.328125 -23.90625 26.296875 -23.90625 C 26.753906 -23.90625 27.15625 -24.0625 27.5 -24.375 C 27.84375 -24.6875 28.015625 -25.097656 28.015625 -25.609375 L 28.015625 -62.765625 C 28.015625 -64.242188 28.539062 -65.507812 29.59375 -66.5625 C 30.644531 -67.613281 31.878906 -68.140625 33.296875 -68.140625 L 45.25 -68.140625 C 46.675781 -68.140625 47.914062 -67.613281 48.96875 -66.5625 C 50.019531 -65.507812 50.546875 -64.242188 50.546875 -62.765625 Z M 50.546875 -22.71875 "/></g></g></g><g fill="#d8d8d8" fill-opacity="1"><g transform="translate(584.974678, 199.353041)"><g><path d="M 52 -68.140625 C 53.363281 -68.140625 54.546875 -67.625 55.546875 -66.59375 C 56.546875 -65.570312 57.046875 -64.378906 57.046875 -63.015625 L 57.046875 -23.3125 C 56.867188 -19.84375 56 -16.597656 54.4375 -13.578125 C 52.875 -10.554688 50.796875 -7.90625 48.203125 -5.625 C 45.609375 -3.351562 42.675781 -1.578125 39.40625 -0.296875 C 36.132812 0.984375 32.734375 1.625 29.203125 1.625 C 25.617188 1.625 22.160156 0.941406 18.828125 -0.421875 C 15.492188 -1.785156 12.53125 -3.648438 9.9375 -6.015625 C 7.351562 -8.378906 5.289062 -11.140625 3.75 -14.296875 C 2.21875 -17.460938 1.453125 -20.835938 1.453125 -24.421875 L 1.453125 -64.984375 C 1.453125 -65.835938 1.75 -66.5625 2.34375 -67.15625 C 2.945312 -67.757812 3.644531 -68.0625 4.4375 -68.0625 L 23.140625 -68.0625 C 23.941406 -68.0625 24.640625 -67.757812 25.234375 -67.15625 C 25.828125 -66.5625 26.125 -65.835938 26.125 -64.984375 L 26.125 -24.25 C 26.125 -23.226562 26.492188 -22.359375 27.234375 -21.640625 C 27.972656 -20.929688 28.828125 -20.578125 29.796875 -20.578125 C 30.828125 -20.578125 31.710938 -20.929688 32.453125 -21.640625 C 33.191406 -22.359375 33.5625 -23.226562 33.5625 -24.25 L 33.5625 -63.015625 C 33.5625 -64.378906 34.046875 -65.570312 35.015625 -66.59375 C 35.984375 -67.625 37.148438 -68.140625 38.515625 -68.140625 Z M 52 -68.140625 "/></g></g></g><g fill="#d8d8d8" fill-opacity="1"><g transform="translate(643.465106, 199.353041)"><g><path d="M 29.890625 -71.390625 C 34.273438 -71.390625 37.988281 -70.90625 41.03125 -69.9375 C 44.070312 -68.96875 46.585938 -67.726562 48.578125 -66.21875 C 50.578125 -64.707031 52.144531 -63.097656 53.28125 -61.390625 C 54.414062 -59.679688 55.253906 -58.054688 55.796875 -56.515625 C 56.335938 -54.984375 56.695312 -53.765625 56.875 -52.859375 C 56.988281 -52.234375 56.898438 -51.707031 56.609375 -51.28125 C 56.328125 -50.851562 55.957031 -50.609375 55.5 -50.546875 L 34.578125 -47.640625 C 33.609375 -47.640625 32.957031 -48.125 32.625 -49.09375 C 32.21875 -50.238281 31.53125 -51.082031 30.5625 -51.625 C 29.601562 -52.164062 28.78125 -52.4375 28.09375 -52.4375 C 27.1875 -52.4375 26.175781 -52.050781 25.0625 -51.28125 C 23.945312 -50.507812 23.390625 -49.296875 23.390625 -47.640625 C 23.390625 -46.273438 23.773438 -45.265625 24.546875 -44.609375 C 25.316406 -43.960938 26.210938 -43.535156 27.234375 -43.328125 C 28.265625 -43.128906 29.148438 -43.03125 29.890625 -43.03125 C 31.304688 -43.03125 33.15625 -43.015625 35.4375 -42.984375 C 37.71875 -42.960938 40.125 -42.679688 42.65625 -42.140625 C 45.1875 -41.597656 47.578125 -40.597656 49.828125 -39.140625 C 52.078125 -37.691406 53.910156 -35.554688 55.328125 -32.734375 C 56.753906 -29.921875 57.46875 -26.210938 57.46875 -21.609375 C 57.46875 -16.941406 56.710938 -13.007812 55.203125 -9.8125 C 53.691406 -6.625 51.726562 -4.09375 49.3125 -2.21875 C 46.894531 -0.34375 44.257812 1.003906 41.40625 1.828125 C 38.5625 2.660156 35.800781 3.078125 33.125 3.078125 C 27.78125 3.078125 23.3125 2.550781 19.71875 1.5 C 16.132812 0.445312 13.1875 -0.988281 10.875 -2.8125 C 8.570312 -4.632812 6.738281 -6.679688 5.375 -8.953125 C 4.007812 -11.234375 2.898438 -13.597656 2.046875 -16.046875 C 1.304688 -17.359375 1.59375 -18.15625 2.90625 -18.4375 L 25.78125 -21.171875 C 26.414062 -21.285156 26.859375 -21.253906 27.109375 -21.078125 C 27.367188 -20.910156 27.554688 -20.660156 27.671875 -20.328125 C 28.117188 -18.617188 28.8125 -17.550781 29.75 -17.125 C 30.695312 -16.695312 31.507812 -16.484375 32.1875 -16.484375 C 33.382812 -16.484375 34.46875 -16.921875 35.4375 -17.796875 C 36.40625 -18.679688 36.890625 -19.804688 36.890625 -21.171875 C 36.890625 -22.597656 36.390625 -23.707031 35.390625 -24.5 C 34.398438 -25.300781 33.191406 -25.703125 31.765625 -25.703125 L 26.640625 -25.703125 C 21.859375 -25.703125 17.5625 -26.613281 13.75 -28.4375 C 9.9375 -30.257812 6.929688 -32.921875 4.734375 -36.421875 C 2.546875 -39.921875 1.453125 -44.144531 1.453125 -49.09375 C 1.453125 -53.082031 2.101562 -56.398438 3.40625 -59.046875 C 4.71875 -61.691406 6.425781 -63.828125 8.53125 -65.453125 C 10.644531 -67.078125 12.894531 -68.316406 15.28125 -69.171875 C 17.675781 -70.023438 19.953125 -70.59375 22.109375 -70.875 C 24.273438 -71.15625 26.066406 -71.3125 27.484375 -71.34375 C 28.910156 -71.375 29.710938 -71.390625 29.890625 -71.390625 Z M 29.890625 -71.390625 "/></g></g></g><g fill="#d8d8d8" fill-opacity="1"><g transform="translate(702.382468, 199.353041)"><g><path d="M 57.21875 -68.3125 C 58.863281 -68.3125 60.269531 -67.726562 61.4375 -66.5625 C 62.601562 -65.394531 63.1875 -63.984375 63.1875 -62.328125 L 63.1875 -50.640625 C 63.1875 -49.046875 62.601562 -47.648438 61.4375 -46.453125 C 60.269531 -45.253906 58.863281 -44.65625 57.21875 -44.65625 L 45.515625 -44.65625 C 45.054688 -44.65625 44.828125 -44.457031 44.828125 -44.0625 L 44.828125 -5.8125 C 44.828125 -4.21875 44.242188 -2.820312 43.078125 -1.625 C 41.910156 -0.425781 40.503906 0.171875 38.859375 0.171875 L 27.234375 0.171875 C 25.523438 0.171875 24.085938 -0.425781 22.921875 -1.625 C 21.753906 -2.820312 21.171875 -4.21875 21.171875 -5.8125 L 21.171875 -44.0625 C 21.171875 -44.457031 20.972656 -44.65625 20.578125 -44.65625 L 8.796875 -44.65625 C 7.203125 -44.65625 5.804688 -45.253906 4.609375 -46.453125 C 3.410156 -47.648438 2.8125 -49.046875 2.8125 -50.640625 L 2.8125 -62.328125 C 2.8125 -63.984375 3.410156 -65.394531 4.609375 -66.5625 C 5.804688 -67.726562 7.203125 -68.3125 8.796875 -68.3125 Z M 57.21875 -68.3125 "/></g></g></g><g fill="#d8d8d8" fill-opacity="1"><g transform="translate(768.386983, 199.353041)"><g/></g></g><g fill="#d8d8d8" fill-opacity="1"><g transform="translate(797.41873, 199.353041)"><g><path d="M 8.875 0.078125 C 7.226562 0.078125 5.804688 -0.546875 4.609375 -1.796875 C 3.410156 -3.046875 2.8125 -4.46875 2.8125 -6.0625 L 2.8125 -62.171875 C 2.8125 -63.984375 3.410156 -65.457031 4.609375 -66.59375 C 5.804688 -67.738281 7.226562 -68.3125 8.875 -68.3125 L 19.46875 -68.3125 C 21.289062 -68.3125 22.769531 -67.738281 23.90625 -66.59375 C 25.039062 -65.457031 25.609375 -63.984375 25.609375 -62.171875 L 25.609375 -6.0625 C 25.609375 -4.46875 25.039062 -3.046875 23.90625 -1.796875 C 22.769531 -0.546875 21.289062 0.078125 19.46875 0.078125 Z M 8.875 0.078125 "/></g></g></g><g fill="#d8d8d8" fill-opacity="1"><g transform="translate(825.852741, 199.353041)"><g><path d="M 52.6875 -68.234375 C 54.445312 -68.234375 55.925781 -67.632812 57.125 -66.4375 C 58.320312 -65.238281 58.921875 -63.785156 58.921875 -62.078125 L 58.921875 -5.03125 C 58.921875 -3.320312 58.320312 -1.867188 57.125 -0.671875 C 55.925781 0.515625 54.445312 1.109375 52.6875 1.109375 L 41.921875 1.109375 C 40.554688 1.109375 39.359375 0.710938 38.328125 -0.078125 C 37.304688 -0.878906 36.539062 -1.878906 36.03125 -3.078125 L 26.046875 -24.25 L 26.046875 -5.03125 C 26.046875 -3.320312 25.445312 -1.867188 24.25 -0.671875 C 23.050781 0.515625 21.570312 1.109375 19.8125 1.109375 L 9.046875 1.109375 C 7.335938 1.109375 5.867188 0.515625 4.640625 -0.671875 C 3.421875 -1.867188 2.8125 -3.320312 2.8125 -5.03125 L 2.8125 -62.078125 C 2.8125 -63.785156 3.421875 -65.238281 4.640625 -66.4375 C 5.867188 -67.632812 7.335938 -68.234375 9.046875 -68.234375 L 19.8125 -68.234375 C 21.125 -68.234375 22.316406 -67.859375 23.390625 -67.109375 C 24.472656 -66.367188 25.242188 -65.40625 25.703125 -64.21875 L 35.6875 -42.015625 L 35.6875 -62.078125 C 35.6875 -63.785156 36.3125 -65.238281 37.5625 -66.4375 C 38.820312 -67.632812 40.273438 -68.234375 41.921875 -68.234375 Z M 52.6875 -68.234375 "/></g></g></g><g fill="#d8d8d8" fill-opacity="1"><g transform="translate(887.587895, 199.353041)"><g/></g></g><g fill="#d8d8d8" fill-opacity="1"><g transform="translate(916.619641, 199.353041)"><g><path d="M 36.203125 -27.0625 L 55.671875 -27.0625 C 55.960938 -27.0625 56.234375 -26.929688 56.484375 -26.671875 C 56.742188 -26.421875 56.875 -26.15625 56.875 -25.875 L 56.875 -24.84375 C 56.875 -21.207031 56.101562 -17.820312 54.5625 -14.6875 C 53.03125 -11.550781 50.96875 -8.800781 48.375 -6.4375 C 45.78125 -4.082031 42.832031 -2.25 39.53125 -0.9375 C 36.226562 0.375 32.785156 1.03125 29.203125 1.03125 C 25.734375 1.03125 22.332031 0.375 19 -0.9375 C 15.664062 -2.25 12.6875 -4.082031 10.0625 -6.4375 C 7.445312 -8.800781 5.359375 -11.550781 3.796875 -14.6875 C 2.234375 -17.820312 1.453125 -21.207031 1.453125 -24.84375 L 1.453125 -44.140625 C 1.453125 -47.671875 2.234375 -50.957031 3.796875 -54 C 5.359375 -57.050781 7.445312 -59.726562 10.0625 -62.03125 C 12.6875 -64.34375 15.664062 -66.148438 19 -67.453125 C 22.332031 -68.765625 25.734375 -69.421875 29.203125 -69.421875 C 32.785156 -69.421875 36.226562 -68.765625 39.53125 -67.453125 C 42.832031 -66.148438 45.78125 -64.34375 48.375 -62.03125 C 50.96875 -59.726562 53.03125 -57.050781 54.5625 -54 C 56.101562 -50.957031 56.875 -47.671875 56.875 -44.140625 L 56.875 -42.609375 C 56.875 -42.265625 56.742188 -41.960938 56.484375 -41.703125 C 56.234375 -41.453125 55.960938 -41.328125 55.671875 -41.328125 L 36.203125 -41.328125 C 35.804688 -41.328125 35.476562 -41.46875 35.21875 -41.75 C 34.96875 -42.039062 34.84375 -42.351562 34.84375 -42.6875 L 34.84375 -43.125 C 34.84375 -43.914062 34.613281 -44.707031 34.15625 -45.5 C 33.695312 -46.300781 33.15625 -46.90625 32.53125 -47.3125 C 31 -48.21875 29.546875 -48.515625 28.171875 -48.203125 C 26.804688 -47.890625 25.695312 -47.21875 24.84375 -46.1875 C 23.988281 -45.164062 23.5625 -43.972656 23.5625 -42.609375 L 23.5625 -25.703125 C 23.5625 -24.273438 24.101562 -23.003906 25.1875 -21.890625 C 26.269531 -20.785156 27.609375 -20.234375 29.203125 -20.234375 C 30.679688 -20.234375 31.988281 -20.785156 33.125 -21.890625 C 34.269531 -23.003906 34.84375 -24.273438 34.84375 -25.703125 C 34.84375 -26.609375 35.296875 -27.0625 36.203125 -27.0625 Z M 36.203125 -27.0625 "/></g></g></g><g fill="#d8d8d8" fill-opacity="1"><g transform="translate(974.939285, 199.353041)"><g><path d="M 65.15625 -7.171875 C 65.4375 -5.921875 65.320312 -4.679688 64.8125 -3.453125 C 64.300781 -2.234375 63.472656 -1.3125 62.328125 -0.6875 C 61.585938 -0.226562 60.734375 0 59.765625 0 L 48.15625 0 C 46.5625 0 45.363281 -0.484375 44.5625 -1.453125 C 43.769531 -2.421875 43.0625 -3.703125 42.4375 -5.296875 L 39.875 -11.953125 L 26.8125 -11.953125 L 24.34375 -5.296875 C 23.707031 -3.703125 22.988281 -2.429688 22.1875 -1.484375 C 21.394531 -0.546875 20.203125 -0.078125 18.609375 -0.078125 L 7 -0.078125 C 6.09375 -0.078125 5.351562 -0.222656 4.78125 -0.515625 C 3.53125 -1.078125 2.601562 -2 2 -3.28125 C 1.40625 -4.5625 1.28125 -5.890625 1.625 -7.265625 L 17 -63.703125 C 17.164062 -64.492188 17.460938 -65.144531 17.890625 -65.65625 C 18.316406 -66.175781 18.726562 -66.578125 19.125 -66.859375 C 20.039062 -67.597656 21.148438 -67.96875 22.453125 -67.96875 L 44.828125 -67.96875 C 45.453125 -67.96875 46.132812 -67.851562 46.875 -67.625 C 47.613281 -67.394531 48.296875 -66.96875 48.921875 -66.34375 C 49.554688 -65.664062 49.972656 -64.96875 50.171875 -64.25 C 50.367188 -63.539062 50.523438 -62.929688 50.640625 -62.421875 Z M 37.40625 -31.6875 C 37.800781 -31.6875 38.113281 -31.851562 38.34375 -32.1875 C 38.570312 -32.53125 38.628906 -32.898438 38.515625 -33.296875 L 36.296875 -39.109375 L 34.5 -43.546875 C 34.320312 -44.117188 33.945312 -44.40625 33.375 -44.40625 C 32.8125 -44.40625 32.445312 -44.117188 32.28125 -43.546875 L 30.5625 -39.109375 L 28.34375 -33.296875 C 28.125 -32.898438 28.15625 -32.53125 28.4375 -32.1875 C 28.71875 -31.851562 29.054688 -31.6875 29.453125 -31.6875 Z M 37.40625 -31.6875 "/></g></g></g><g fill="#d8d8d8" fill-opacity="1"><g transform="translate(1041.712269, 199.353041)"><g><path d="M 29.890625 -71.390625 C 34.273438 -71.390625 37.988281 -70.90625 41.03125 -69.9375 C 44.070312 -68.96875 46.585938 -67.726562 48.578125 -66.21875 C 50.578125 -64.707031 52.144531 -63.097656 53.28125 -61.390625 C 54.414062 -59.679688 55.253906 -58.054688 55.796875 -56.515625 C 56.335938 -54.984375 56.695312 -53.765625 56.875 -52.859375 C 56.988281 -52.234375 56.898438 -51.707031 56.609375 -51.28125 C 56.328125 -50.851562 55.957031 -50.609375 55.5 -50.546875 L 34.578125 -47.640625 C 33.609375 -47.640625 32.957031 -48.125 32.625 -49.09375 C 32.21875 -50.238281 31.53125 -51.082031 30.5625 -51.625 C 29.601562 -52.164062 28.78125 -52.4375 28.09375 -52.4375 C 27.1875 -52.4375 26.175781 -52.050781 25.0625 -51.28125 C 23.945312 -50.507812 23.390625 -49.296875 23.390625 -47.640625 C 23.390625 -46.273438 23.773438 -45.265625 24.546875 -44.609375 C 25.316406 -43.960938 26.210938 -43.535156 27.234375 -43.328125 C 28.265625 -43.128906 29.148438 -43.03125 29.890625 -43.03125 C 31.304688 -43.03125 33.15625 -43.015625 35.4375 -42.984375 C 37.71875 -42.960938 40.125 -42.679688 42.65625 -42.140625 C 45.1875 -41.597656 47.578125 -40.597656 49.828125 -39.140625 C 52.078125 -37.691406 53.910156 -35.554688 55.328125 -32.734375 C 56.753906 -29.921875 57.46875 -26.210938 57.46875 -21.609375 C 57.46875 -16.941406 56.710938 -13.007812 55.203125 -9.8125 C 53.691406 -6.625 51.726562 -4.09375 49.3125 -2.21875 C 46.894531 -0.34375 44.257812 1.003906 41.40625 1.828125 C 38.5625 2.660156 35.800781 3.078125 33.125 3.078125 C 27.78125 3.078125 23.3125 2.550781 19.71875 1.5 C 16.132812 0.445312 13.1875 -0.988281 10.875 -2.8125 C 8.570312 -4.632812 6.738281 -6.679688 5.375 -8.953125 C 4.007812 -11.234375 2.898438 -13.597656 2.046875 -16.046875 C 1.304688 -17.359375 1.59375 -18.15625 2.90625 -18.4375 L 25.78125 -21.171875 C 26.414062 -21.285156 26.859375 -21.253906 27.109375 -21.078125 C 27.367188 -20.910156 27.554688 -20.660156 27.671875 -20.328125 C 28.117188 -18.617188 28.8125 -17.550781 29.75 -17.125 C 30.695312 -16.695312 31.507812 -16.484375 32.1875 -16.484375 C 33.382812 -16.484375 34.46875 -16.921875 35.4375 -17.796875 C 36.40625 -18.679688 36.890625 -19.804688 36.890625 -21.171875 C 36.890625 -22.597656 36.390625 -23.707031 35.390625 -24.5 C 34.398438 -25.300781 33.191406 -25.703125 31.765625 -25.703125 L 26.640625 -25.703125 C 21.859375 -25.703125 17.5625 -26.613281 13.75 -28.4375 C 9.9375 -30.257812 6.929688 -32.921875 4.734375 -36.421875 C 2.546875 -39.921875 1.453125 -44.144531 1.453125 -49.09375 C 1.453125 -53.082031 2.101562 -56.398438 3.40625 -59.046875 C 4.71875 -61.691406 6.425781 -63.828125 8.53125 -65.453125 C 10.644531 -67.078125 12.894531 -68.316406 15.28125 -69.171875 C 17.675781 -70.023438 19.953125 -70.59375 22.109375 -70.875 C 24.273438 -71.15625 26.066406 -71.3125 27.484375 -71.34375 C 28.910156 -71.375 29.710938 -71.390625 29.890625 -71.390625 Z M 29.890625 -71.390625 "/></g></g></g><g fill="#d8d8d8" fill-opacity="1"><g transform="translate(1100.629665, 199.353041)"><g><path d="M 26.640625 -49.78125 C 26.472656 -49.78125 26.332031 -49.691406 26.21875 -49.515625 C 26.101562 -49.347656 26.046875 -49.207031 26.046875 -49.09375 L 26.046875 -43.46875 C 26.046875 -43.125 26.242188 -42.953125 26.640625 -42.953125 L 39.1875 -42.953125 C 40.332031 -42.953125 41.300781 -42.550781 42.09375 -41.75 C 42.894531 -40.957031 43.296875 -39.992188 43.296875 -38.859375 L 43.296875 -29.546875 C 43.296875 -28.410156 42.894531 -27.441406 42.09375 -26.640625 C 41.300781 -25.847656 40.332031 -25.453125 39.1875 -25.453125 L 26.640625 -25.453125 C 26.242188 -25.453125 26.046875 -25.25 26.046875 -24.84375 L 26.046875 -19.390625 C 26.046875 -18.984375 26.242188 -18.78125 26.640625 -18.78125 L 43.96875 -18.78125 C 45.226562 -18.78125 46.296875 -18.320312 47.171875 -17.40625 C 48.054688 -16.5 48.5 -15.421875 48.5 -14.171875 L 48.5 -4.609375 C 48.5 -3.359375 48.054688 -2.304688 47.171875 -1.453125 C 46.296875 -0.597656 45.226562 -0.171875 43.96875 -0.171875 L 9.046875 -0.171875 C 7.285156 -0.171875 5.804688 -0.835938 4.609375 -2.171875 C 3.410156 -3.515625 2.8125 -5.4375 2.8125 -7.9375 L 2.8125 -63.53125 C 2.8125 -64.5 3.410156 -65.523438 4.609375 -66.609375 C 5.804688 -67.691406 7.285156 -68.234375 9.046875 -68.234375 L 43.96875 -68.234375 C 45.226562 -68.234375 46.296875 -67.804688 47.171875 -66.953125 C 48.054688 -66.097656 48.5 -65.039062 48.5 -63.78125 L 48.5 -54.21875 C 48.5 -53.03125 48.054688 -51.992188 47.171875 -51.109375 C 46.296875 -50.222656 45.226562 -49.78125 43.96875 -49.78125 Z M 26.640625 -49.78125 "/></g></g></g><g fill="#d8d8d8" fill-opacity="1"><g transform="translate(1151.947557, 199.353041)"><g><path d="M 12.890625 -5.984375 C 12.890625 -7.628906 12.304688 -9.035156 11.140625 -10.203125 C 9.972656 -11.367188 8.566406 -11.953125 6.921875 -11.953125 C 5.265625 -11.953125 3.851562 -11.367188 2.6875 -10.203125 C 1.519531 -9.035156 0.9375 -7.628906 0.9375 -5.984375 C 0.9375 -4.328125 1.519531 -2.914062 2.6875 -1.75 C 3.851562 -0.582031 5.265625 0 6.921875 0 C 8.566406 0 9.972656 -0.582031 11.140625 -1.75 C 12.304688 -2.914062 12.890625 -4.328125 12.890625 -5.984375 Z M 12.890625 -5.984375 "/></g></g></g></g></g></svg>